<?xml version="1.0" standalone="no"?>
<!DOCTYPE svg PUBLIC "-//W3C//DTD SVG 1.1//EN" "http://www.w3.org/Graphics/SVG/1.1/DTD/svg11.dtd" >
<svg xmlns="http://www.w3.org/2000/svg">
<metadata>Generated by IcoMoon</metadata>
<defs>
<font id="jimdoiconfont" horiz-adv-x="1024">
<font-face units-per-em="1024" ascent="960" descent="-64" />
<missing-glyph horiz-adv-x="1024" />
<glyph unicode="&#x20;" d="" horiz-adv-x="512" />
<glyph unicode="&#xe600;" d="M1023.424 538.016c-0.384 21.6-2.016 48.896-4.864 81.92-2.848 32.992-6.944 62.496-12.288 88.512-6.080 29.216-19.296 53.824-39.648 73.792-20.352 20-44.032 31.584-71.040 34.784-84.448 10.016-212.064 15.008-382.88 15.008s-298.4-5.024-382.848-15.008c-27.040-3.2-50.624-14.784-70.784-34.784s-33.28-44.608-39.36-73.792c-5.728-26.016-10.016-55.52-12.864-88.512s-4.48-60.288-4.864-81.92c-0.352-21.632-0.576-51.616-0.576-90.016s0.192-68.384 0.576-90.016c0.384-21.6 2.016-48.896 4.864-81.92 2.848-32.992 6.944-62.496 12.256-88.512 6.080-29.216 19.296-53.824 39.648-73.792 20.352-20 44.032-31.584 71.040-34.784 84.448-10.016 212.064-15.008 382.88-15.008 170.784 0 298.4 4.992 382.88 15.008 27.008 3.2 50.624 14.784 70.784 34.784s33.28 44.608 39.36 73.792c5.728 26.016 10.016 55.52 12.864 88.512s4.48 60.288 4.864 81.92c0.384 21.632 0.576 51.616 0.576 90.016s-0.192 68.384-0.576 90.016zM756.512 429.632l-366.528-230.432c-7.648-4.8-17.408-7.232-29.248-7.232-11.008 0-20.576 2.528-28.672 7.584s-12.096 11.072-12.064 18.016v460.864c0 6.912 4.032 12.928 12.064 18.016s17.6 7.616 28.672 7.584c11.904 0 21.632-2.4 29.248-7.232l366.528-230.432c7.648-4.8 11.488-10.912 11.488-18.368s-3.84-13.568-11.488-18.368z" />
<glyph unicode="&#xe601;" d="M64 928.288c-17.6 0-32-14.4-32-32v-896.288c0-17.6 14.4-32 32-32h896.288c17.6 0 32 14.4 32 32v896.288c0 17.6-14.4 32-32 32h-896.288zM480.128 32.032h-384.096v768.224h384.096v-768.224zM928.256 32.032h-384.096v768.224h384.096v-768.224z" />
<glyph unicode="&#xe602;" d="M448.064 96c0-26.496-9.376-49.12-28.128-67.872s-41.376-28.128-67.872-28.128-49.12 9.376-67.872 28.128c-18.752 18.752-28.128 41.376-28.128 67.872s9.376 49.12 28.128 67.872 41.376 28.128 67.872 28.128 49.12-9.376 67.872-28.128 28.128-41.376 28.128-67.872zM1024 96c0-26.496-9.376-49.12-28.128-67.872s-41.376-28.128-67.872-28.128-49.12 9.376-67.872 28.128-28.096 41.376-28.096 67.872 9.376 49.12 28.128 67.872 41.344 28.128 67.84 28.128 49.12-9.376 67.872-28.128 28.128-41.376 28.128-67.872zM227.936 829.248h759.36c9.888 0 18.464-3.616 25.696-10.848s10.848-15.808 10.848-25.696h0.064v-301.76c0-9.152-3.040-17.248-9.152-24.288-6.080-7.040-13.92-11.136-23.424-12.288l-677.44-64.224 27.488-133.952h627.616c9.888 0 18.464-3.616 25.696-10.848s10.848-11.328 10.848-21.216c0-9.888-3.616-13.984-10.848-21.216-7.2-7.264-15.776-10.912-25.696-10.912h-658.944c-9.888 0-20.896 7.68-28.128 14.912s-12.864 21.632-12.864 21.632l-115.936 600.704h-116.544c-9.888 0-18.464 3.616-25.696 10.848s-10.88 9.44-10.88 19.328 3.616 18.464 10.848 25.696 15.808 10.88 25.728 10.88h146.272c6.080 0 11.52-1.248 16.256-3.744 4.768-2.496 8.576-5.44 11.456-8.864 2.848-3.392 5.344-8.064 7.392-13.984 2.080-5.92 3.488-10.976 4.288-15.136l5.696-25.024z" />
<glyph unicode="&#xe603;" d="M652.8 161.472h-108.096v575.968h108.096c5.216-0.032 9.728 0.832 13.504 5.44 3.808 4.64 5.696 10.080 5.696 16.384 0 6.752-1.792 12.32-5.408 16.704l-140.8 177.472c-3.616 4.384-8.224 6.56-13.792 6.56s-10.176-2.176-13.792-6.56l-140.8-177.472c-3.616-4.32-5.408-9.888-5.408-16.704-0.032-6.336 1.856-11.808 5.696-16.384 3.808-4.576 8.32-5.44 13.504-5.44h109.504v-575.968h-109.504c-5.216 0.032-9.728-3.744-13.504-8.352s-5.696-10.080-5.696-16.384c0-6.752 1.792-12.32 5.408-16.704l140.8-177.44c3.616-4.416 8.224-6.592 13.792-6.592s10.176 2.176 13.792 6.56l140.8 177.44c3.616 4.352 5.408 9.92 5.408 16.736 0.032 6.336-1.856 11.776-5.696 16.384-3.808 4.576-8.32 8.352-13.504 8.352z" />
<glyph unicode="&#xe604;" d="M489.984 73.024l-312 300.992c-3.968 3.52-113.984 104-113.984 224 0 146.496 89.536 233.984 239.040 233.984 87.424 0 169.472-68.992 208.96-107.968 39.488 38.976 121.536 107.968 208.96 107.968 149.504 0 239.040-87.488 239.040-233.984 0-120-110.016-220.48-114.496-225.024l-311.488-299.968c-6.016-6.016-14.016-9.024-22.016-9.024s-16 3.008-22.016 9.024z" />
<glyph unicode="&#xe605;" d="M928 479.84h-384v384.16c0 17.6-14.4 32-32 32s-32-14.4-32-32v-384.16h-384c-17.6 0-32-14.4-32-32s14.4-32 32-32h384v-383.84c0-17.6 14.4-32 32-32s32 14.4 32 32v383.84h384c17.6 0 32 14.4 32 32s-14.4 32-32 32z" />
<glyph unicode="&#xe606;" d="M928 736v-576h-832v576h832zM960 800h-896c-16 0-32-12.8-32-32v-640c0-16 16-32 32-32h896c19.2 0 32 12.8 32 32v640c0 19.2-12.8 32-32 32v0zM352 576c0-25.6-9.6-48-28.8-67.2-16-19.2-38.4-28.8-67.2-28.8s-48 9.6-67.2 28.8c-19.2 19.2-28.8 41.6-28.8 67.2s9.6 48 28.8 67.2c19.2 19.2 41.6 28.8 67.2 28.8s48-9.6 67.2-28.8c19.2-19.2 28.8-41.6 28.8-67.2zM416 480l64-64 192 192 192-192v-192h-704z" />
<glyph unicode="&#xe607;" d="M384 768c0-16-12.8-32-32-32h-320c-19.2 0-32 16-32 32s12.8 32 32 32h320c16 0 32-12.8 32-32zM384 640c0-16-12.8-32-32-32h-320c-19.2 0-32 12.8-32 32s12.8 32 32 32h320c16 0 32-12.8 32-32zM384 512c0-16-12.8-32-32-32h-320c-16 0-32 12.8-32 32s12.8 32 32 32h320c16 0 32-12.8 32-32zM384 384c0-16-12.8-32-32-32h-320c-16 0-32 12.8-32 32s12.8 32 32 32h320c16 0 32-12.8 32-32zM384 256c0-16-12.8-32-32-32h-320c-19.2 0-32 12.8-32 32s12.8 32 32 32h320c16 0 32-12.8 32-32zM1024 128c0-16-16-32-32-32h-960c-19.2 0-32 12.8-32 32s12.8 32 32 32h960c16 0 32-12.8 32-32zM960 736v-448h-448v448h448zM992 800h-512c-19.2 0-32-12.8-32-32v-512c0-19.2 12.8-32 32-32h512c19.2 0 32 12.8 32 32v512c0 19.2-12.8 32-32 32v0zM704 608c0-19.2-6.4-32-19.2-44.8s-25.6-19.2-44.8-19.2-32 6.4-44.8 19.2c-12.8 12.8-19.2 25.6-19.2 44.8s6.4 32 19.2 44.8c12.8 12.8 25.6 19.2 44.8 19.2s32-6.4 44.8-19.2c12.8-12.8 19.2-25.6 19.2-44.8zM672 448l32-32 96 96 96-96v-64h-320z" />
<glyph unicode="&#xe608;" d="M0 480c0 17.6 14.4 32 32 32h960c17.6 0 32-14.4 32-32v-64c0-17.6-14.4-32-32-32h-960c-17.6 0-32 14.4-32 32v64z" />
<glyph unicode="&#xe609;" d="M1024 256c0-16-16-32-32-32h-960c-19.2 0-32 12.8-32 32s12.8 32 32 32h960c16 0 32-12.8 32-32zM544 128c0-16-16-32-32-32h-480c-19.2 0-32 12.8-32 32s12.8 32 32 32h480c16 0 32-12.8 32-32zM1024 672c0-19.2-12.8-32-32-32h-960c-19.2 0-32 12.8-32 32v96c0 19.2 12.8 32 32 32h960c19.2 0 32-12.8 32-32v-96zM1024 512c0-16-16-32-32-32h-960c-19.2 0-32 12.8-32 32s12.8 32 32 32h960c16 0 32-16 32-32zM1024 384c0-16-16-32-32-32h-960c-19.2 0-32 12.8-32 32s12.8 32 32 32h960c16 0 32-16 32-32z" />
<glyph unicode="&#xe60a;" d="M576.192 896.288c0 17.6 14.4 32 32 32h352.096c17.6 0 32-14.4 32-32v-352.096c0-17.6-14.4-32-32-32h-352.096c-17.6 0-32 14.4-32 32v352.096zM32.032 896.288c0 17.6 14.4 32 32 32h352.096c17.6 0 32-14.4 32-32v-352.096c0-17.6-14.4-32-32-32h-352.096c-17.6 0-32 14.4-32 32v352.096zM576.192 352.128c0 17.6 14.4 32 32 32h352.096c17.6 0 32-14.4 32-32v-352.096c0-17.6-14.4-32-32-32h-352.096c-17.6 0-32 14.4-32 32v352.096zM32.032 352.128c0 17.6 14.4 32 32 32h352.096c17.6 0 32-14.4 32-32v-352.096c0-17.6-14.4-32-32-32h-352.096c-17.6 0-32 14.4-32 32v352.096z" />
<glyph unicode="&#xe60b;" d="M512-64c-282.304 0-512 229.696-512 512s229.696 512 512 512c17.664 0 32-14.304 32-32s-14.336-32-32-32c-247.040 0-448-200.96-448-448s200.96-448 448-448 448 200.96 448 448c0 119.68-46.624 232.224-131.296 316.832-12.512 12.512-12.512 32.736 0 45.248 12.48 12.512 32.736 12.512 45.248 0 96.768-96.704 150.048-225.312 150.048-362.080 0-282.304-229.696-512-512-512z" />
<glyph unicode="&#xe60c;" d="M942.912 643.904c12.416 12.416 12.416 32.832 0 45.248l-90.496 90.496c-12.416 12.416-32.832 12.416-45.248 0l-384.64-384.64-203.712 203.648c-12.416 12.416-32.832 12.416-45.248 0l-90.496-90.56c-12.416-12.416-12.416-32.832 0-45.248l316.8-316.8c6.208-6.208 14.4-9.344 22.656-9.344s16.384 3.136 22.656 9.344l497.728 497.856z" />
<glyph unicode="&#xe60d;" d="M870.208 152.448l-294.336 295.552 295.232 295.232c12.416 12.416 12.416 32.832 0 45.248l-33.92 34.048c-12.416 12.416-32.832 12.416-45.248 0l-280.256-278.208-277.888 278.592c-12.416 12.416-32.832 12.416-45.248 0l-35.712-35.712c-12.416-12.416-12.416-32.832 0-45.248l295.040-293.952-295.232-295.232c-12.416-12.416-12.416-32.832 0-45.248l34.624-33.984c12.416-12.416 32.832-12.416 45.248 0l279.168 278.784 280.256-278.144c12.416-12.416 32.832-12.416 45.248 0l32.96 32.96c12.544 12.48 12.544 32.832 0.064 45.312z" />
<glyph unicode="&#xe60e;" d="M956.8 803.2c-3.2 0-9.6 0-12.8-3.2l-384-384-166.4 166.4c-3.2 3.2-6.4 3.2-12.8 3.2s-9.6 0-12.8-3.2l-44.8-44.8c-6.4-6.4-6.4-16 0-22.4l220.8-220.8c3.2-3.2 6.4-3.2 12.8-3.2s9.6 0 12.8 3.2l444.8 435.2c6.4 6.4 6.4 16 0 22.4l-44.8 44.8c-3.2 3.2-6.4 6.4-12.8 6.4zM768 768h-544c-19.2 0-32-12.8-32-32v-576c0-19.2 16-32 32-32h576c19.2 0 32 16 32 32v272l-64-64v-176h-512v512h448l64 64z" />
<glyph unicode="&#xe60f;" d="M1024 768c0-16-16-32-32-32h-960c-19.2 0-32 16-32 32s12.8 32 32 32h960c16 0 32-12.8 32-32zM768 640c0-16-16-32-32-32h-704c-19.2 0-32 12.8-32 32s16 32 32 32h704c16 0 32-12.8 32-32zM1024 512c0-16-16-32-32-32h-960c-16 0-32 12.8-32 32s16 32 32 32h960c16 0 32-12.8 32-32zM768 384c0-16-16-32-32-32h-704c-16 0-32 12.8-32 32s16 32 32 32h704c16 0 32-12.8 32-32zM1024 256c0-16-16-32-32-32h-960c-19.2 0-32 12.8-32 32s12.8 32 32 32h960c16 0 32-12.8 32-32zM544 128c0-16-16-32-32-32h-480c-19.2 0-32 12.8-32 32s12.8 32 32 32h480c16 0 32-12.8 32-32z" />
<glyph unicode="&#xe610;" d="M928.128 928.384h-832.256c-35.2 0-64-28.8-64-64v-832.736c0-35.2 28.8-64 64-64h832.288c35.2 0 64 28.8 64 64v832.736c-0.032 35.2-28.832 64-64.032 64zM844.224 504.032l-265.28-201.152c-6.848-6.848-16-10.848-25.728-10.848-4.576 0-9.728 1.152-13.728 2.848-13.696 5.728-27.488 18.848-27.488 33.696v91.424c-67.968 0-123.488 6.976-154.784-29.248-41.024-47.488-52.608-105.248-35.456-242.944 1.152-8-3.424-16-10.848-18.848-2.272-1.152-5.152-1.728-7.424-1.728-5.152 0-10.304 2.272-14.304 6.848-3.424 4.576-95.488 88.672-95.488 203.52 0 141.152 72.224 301.792 318.304 301.792v91.488c0 14.848 12.448 28 26.176 33.728 13.152 5.728 29.152 2.848 39.456-8l266.592-201.152c14.304-14.304 14.304-37.152 0-51.424z" />
<glyph unicode="&#xe611;" d="M140.537 279.704c9.299-122.16 86.68-231.756 254.976-231.756 203.222 0 248.417 169.79 248.417 301.72 0 36.394 0 598.403 0 598.403h135.472v-576.789c0.969-125.426-3.958-435.283-401.242-435.283-202.835 0-367.367 124.873-379.212 343.704h141.589zM911.166-51.352h134.448v595.968h-134.448v-595.968zM911.443 762.064h134.448v-134.448h-134.448v134.448zM2168.168 677.348c-134.448 0-220.52-49.761-285.059-130.435-56.486 92.797-147.926 130.435-239.395 130.435l-5.009-0.028-3.542 0.028c-134.448 0-233.251-52.362-297.763-133.037-17.463 78.239-87.732 113.941-156.755 117.732v-134.698c49.955 0.028 52.445-73.645 52.445-153.351v-425.486h134.476v426.261c0 51.117 16.384 91.108 43.617 120.915 0 0 4.428 5.175 8.579 8.746 42.87 40.545 107.603 59.558 176.903 59.918h2.186c86.57-0.664 167.244-40.074 167.244-168.074v-447.792h136.662v452.442c0.304 100.712 116.874 163.425 229.099 163.425 87.344 0 169.264-38.967 169.264-168.074v-447.792h134.338v480.062c0 215.151-196.11 248.804-267.292 248.804z" horiz-adv-x="2491" />
<glyph unicode="&#xe612;" d="M953.6 524.8c0 6.4-6.4 6.4-12.8 6.4l-102.4 19.2c-6.4 19.2-12.8 38.4-25.6 57.6 6.4 12.8 19.2 25.6 32 38.4s25.6 32 32 38.4c0 6.4 6.4 6.4 6.4 12.8s0 12.8-6.4 12.8c-12.8 19.2-44.8 51.2-96 96-6.4 6.4-6.4 6.4-12.8 6.4s-12.8 0-12.8-6.4l-83.2-64c-12.8 6.4-32 12.8-51.2 19.2l-19.2 108.8c0 6.4 0 6.4-6.4 12.8s-6.4 6.4-12.8 6.4h-128c-12.8 0-19.2-6.4-19.2-19.2-6.4-19.2-12.8-57.6-19.2-108.8-19.2-6.4-38.4-12.8-51.2-19.2l-83.2 64c-6.4 6.4-12.8 6.4-12.8 6.4-6.4 0-25.6-12.8-57.6-44.8-25.6-25.6-44.8-51.2-57.6-64-6.4-6.4-6.4-6.4-6.4-12.8s0-6.4 6.4-12.8c25.6-32 44.8-57.6 64-83.2-12.8-19.2-19.2-38.4-25.6-51.2l-108.8-19.2c-6.4 0-6.4-6.4-12.8-6.4 0-6.4-6.4-6.4-6.4-12.8v-128c0-6.4 0-6.4 6.4-12.8 0-6.4 6.4-6.4 12.8-6.4l108.8-12.8c6.4-19.2 12.8-38.4 25.6-57.6-6.4-12.8-19.2-25.6-32-38.4s-25.6-32-32-38.4c0-6.4-6.4-6.4-6.4-12.8s0-6.4 6.4-12.8c12.8-19.2 44.8-51.2 96-96 6.4-6.4 6.4-6.4 12.8-6.4s12.8 0 12.8 6.4l83.2 64c12.8-6.4 32-12.8 51.2-19.2l19.2-102.4c0-6.4 0-6.4 6.4-12.8s6.4-6.4 12.8-6.4h128c12.8 0 19.2 6.4 19.2 19.2 6.4 19.2 12.8 51.2 19.2 108.8 19.2 6.4 38.4 12.8 51.2 19.2l83.2-64c6.4-6.4 12.8-6.4 12.8-6.4 6.4 0 25.6 12.8 57.6 38.4s44.8 51.2 57.6 64c6.4 6.4 6.4 6.4 6.4 12.8s0 12.8-6.4 12.8c-25.6 32-51.2 64-64 83.2 6.4 12.8 12.8 32 25.6 51.2l102.4 19.2c6.4 0 6.4 6.4 12.8 6.4 0 6.4 6.4 6.4 6.4 12.8v128c0-6.4 0 0-6.4 6.4zM512 256c-108.8 0-192 83.2-192 192s83.2 192 192 192 192-83.2 192-192-83.2-192-192-192z" />
<glyph unicode="&#xe613;" d="M850.752 489.408c-0.768 4.224-3.52 8.384-7.68 12.352-33.536-31.744-168.512-36.992-329.856-36.992s-296.192 5.248-329.856 36.992c-4.096-3.968-6.72-8.064-7.68-12.352h-0.32l0.064-2.304c0-0.256-0.064-0.512-0.064-0.768 0-0.64 0.192-1.152 0.256-1.792l26.24-450.432h0.064c2.304-39.296 50.624-98.688 311.232-98.688 260.672 0 308.992 59.392 311.232 98.688h0.192l26.304 450.432c0.128 0.64 0.32 1.216 0.32 1.792 0 0.256-0.192 0.512-0.192 0.768l0.192 2.304h-0.448zM673.856 802.176v118.336c0 21.376-18.816 38.976-41.856 38.976h-251.456c-22.912 0-41.792-17.6-41.792-38.976v-119.616c-124.352-13.184-209.408-39.744-209.408-70.528v-58.496c0-12.032 13.056-23.424 36.416-33.728 61.312-26.816 193.92-45.44 347.52-45.44 153.728 0 286.208 18.624 347.648 45.44 23.232 10.304 36.416 21.696 36.416 33.728v58.496c0 31.872-91.712 59.328-223.488 71.808zM604.096 807.296c-29.184 1.408-59.456 2.24-90.88 2.24-32.512 0-64.064-0.896-94.144-2.496l-10.624-0.64v88.064h195.584v-87.168z" />
<glyph unicode="&#xe614;" d="M807.798 376.652v583.348h-134.448v-391.832c-53.802 76.634-165.418 121.718-270.308 121.718-212.466 0-403.041-150.915-403.041-387.57 0-236.682 184.929-365.955 397.423-365.955 400.771 0 411.371 313.731 410.375 440.292v0zM142.419 302.315c0 161.349 89.005 273.104 275.926 271.581 171.202-1.411 259.985-129.91 259.985-263.888 0-120.721-80.536-260.677-263.417-260.677-181.525 0-272.495 119.836-272.495 252.983v0zM876.572 306.771c0-203.056 134.504-370.411 408.797-370.411 274.321 0 408.77 167.355 408.77 370.411s-134.448 383.53-408.77 383.53c-274.321 0-408.797-180.473-408.797-383.53v0zM1551.609 306.771c0-127.723-71.265-257.439-266.24-257.439s-266.24 129.716-266.24 257.439c0 127.751 59.89 270.53 266.24 270.53 206.737 0 266.24-142.779 266.24-270.53v0z" horiz-adv-x="1716" />
<glyph unicode="&#xe615;" d="M892.096-64c12.288 0 24.576 4.672 33.92 14.080l84.032 84.096c18.752 18.752 18.752 49.152 0 67.904s-49.152 18.752-67.904 0l-84.032-84.096c-18.752-18.752-18.752-49.152 0-67.904 9.408-9.408 21.696-14.080 33.984-14.080zM636.096-64c12.288 0 24.576 4.672 33.92 14.080l340.032 340.096c18.752 18.752 18.752 49.152 0 67.904s-49.152 18.752-67.904 0l-340.032-340.16c-18.752-18.752-18.752-49.152 0-67.904 9.408-9.344 21.696-14.016 33.984-14.016zM380.096-64c12.288 0 24.576 4.672 33.92 14.080l596.032 596.096c18.752 18.752 18.752 49.152 0 67.904s-49.152 18.752-67.904 0l-596.032-596.16c-18.752-18.752-18.752-49.152 0-67.904 9.408-9.344 21.696-14.016 33.984-14.016zM124.096-64c12.288 0 24.576 4.672 33.92 14.080l852.032 852.096c18.752 18.752 18.752 49.152 0 67.904s-49.152 18.752-67.904 0l-852.032-852.16c-18.752-18.752-18.752-49.152 0-67.904 9.408-9.344 21.696-14.016 33.984-14.016z" />
<glyph unicode="&#xe616;" d="M132.032-64c-12.288 0-24.576 4.672-33.92 14.080l-84.032 84.096c-18.752 18.752-18.752 49.152 0 67.904s49.152 18.752 67.904 0l84.032-84.096c18.752-18.752 18.752-49.152 0-67.904-9.408-9.408-21.696-14.080-33.984-14.080zM388.032-64c-12.288 0-24.576 4.672-33.92 14.080l-340.032 340.096c-18.752 18.752-18.752 49.152 0 67.904s49.152 18.752 67.904 0l340.032-340.096c18.752-18.752 18.752-49.152 0-67.904-9.408-9.408-21.696-14.080-33.984-14.080zM644.032-64c-12.288 0-24.576 4.672-33.92 14.080l-596.032 596.096c-18.752 18.752-18.752 49.152 0 67.904s49.152 18.752 67.904 0l596.032-596.096c18.752-18.752 18.752-49.152 0-67.904-9.408-9.408-21.696-14.080-33.984-14.080zM900.032-64c-12.288 0-24.576 4.672-33.92 14.080l-852.032 852.096c-18.752 18.752-18.752 49.152 0 67.904s49.152 18.752 67.904 0l852.032-852.16c18.752-18.752 18.752-49.152 0-67.904-9.408-9.344-21.696-14.016-33.984-14.016z" />
<glyph unicode="&#xe617;" d="M266.624 256c-6.4 0-12.832 2.56-17.728 7.648l-177.568 185.216c-9.792 10.208-9.792 26.752 0 36.96s25.664 10.208 35.424 0l177.568-185.216c9.792-10.208 9.792-26.752 0-36.96-4.864-5.088-11.296-7.648-17.696-7.648zM400.288 256c-6.4 0-12.832 2.56-17.728 7.648l-307.552 320.8c-9.792 10.208-9.792 26.752 0 36.96s25.664 10.208 35.424 0l307.552-320.768c9.792-10.208 9.792-26.752 0-36.96-4.864-5.12-11.296-7.68-17.696-7.68zM533.952 256c-6.4 0-12.832 2.56-17.728 7.648l-307.552 320.8c-9.792 10.208-9.792 26.752 0 36.96s25.664 10.208 35.424 0l307.552-320.768c9.792-10.208 9.792-26.752 0-36.96-4.864-5.12-11.296-7.68-17.696-7.68zM667.616 256c-6.432 0-12.832 2.56-17.728 7.648l-318.016 331.712c-9.792 10.208-9.792 26.752 0 36.96s25.664 10.208 35.424 0l318.016-331.712c9.792-10.208 9.792-26.752 0-36.96-4.864-5.088-11.264-7.648-17.696-7.648zM132.96 256c-6.4 0-12.832 2.56-17.728 7.648l-43.904 45.792c-9.792 10.208-9.792 26.752 0 36.96s25.664 10.208 35.424 0l43.904-45.792c9.792-10.208 9.792-26.752 0-36.96-4.864-5.088-11.296-7.648-17.696-7.648zM934.944 534.816c-6.432 0-12.832 2.56-17.728 7.648l-50.688 52.896c-9.792 10.208-9.792 26.784 0 36.96 9.792 10.24 25.696 10.208 35.424 0l50.688-52.896c9.792-10.208 9.792-26.784 0-36.96-4.864-5.088-11.296-7.648-17.696-7.648zM801.28 256c-6.432 0-12.832 2.56-17.728 7.648l-318.016 331.712c-9.792 10.208-9.792 26.752 0 36.96s25.664 10.208 35.424 0l318.016-331.712c9.792-10.208 9.792-26.752 0-36.96-4.864-5.088-11.264-7.648-17.696-7.648zM934.944 256c-6.432 0-12.832 2.56-17.728 7.648l-318.016 331.712c-9.792 10.208-9.792 26.752 0 36.96s25.664 10.208 35.424 0l318.016-331.712c9.792-10.208 9.792-26.752 0-36.96-4.864-5.088-11.264-7.648-17.696-7.648zM934.944 395.424c-6.432 0-12.832 2.528-17.728 7.616l-184.352 192.32c-9.792 10.208-9.792 26.752 0 36.96s25.664 10.208 35.424 0l184.352-192.32c9.792-10.208 9.792-26.784 0-36.992-4.864-5.056-11.264-7.584-17.696-7.584z" />
<glyph unicode="&#xe618;" d="M672.704 319.808c-17.6 0-34.944-3.328-38.464-7.36s-18.048-15.936-32.256-26.368c0 0-44.224-32.64-88.704-32.64s-88.704 32.64-88.704 32.64c-14.144 10.432-28.672 22.336-32.256 26.368s-20.864 7.36-38.464 7.36h-256.576c-17.6 0-32-14.4-32-32v-256c0-17.6 14.4-32 32-32h832c17.6 0 32 14.4 32 32v256c0 17.6-14.4 32-32 32h-256.576zM640.512 63.808c-35.328 0-64 28.672-64 64s28.672 64 64 64c35.328 0 64-28.672 64-64 0-35.392-28.608-64-64-64zM832.512 63.808c-35.328 0-64 28.672-64 64s28.672 64 64 64c35.328 0 64-28.672 64-64 0-35.392-28.608-64-64-64zM761.728 696.064c-5.056 5.76-11.072 8.64-18.048 8.64h-99.776v223.232c0 17.6-14.4 32.064-32 32.064h-192c-17.6 0-32-14.464-32-32.064v-223.232h-105.024c-0.064 0-0.128 0-0.128 0-6.912 0-12.864-2.88-17.856-8.64-5.12-5.76-7.616-12.608-7.616-20.48 0-8.448 2.432-15.424 7.232-20.928l230.4-262.4c4.8-5.504 10.944-8.256 18.368-8.256s13.568 2.752 18.368 8.256l230.4 262.4c4.8 5.44 7.232 12.416 7.232 20.928 0 7.872-2.496 14.72-7.552 20.48z" />
<glyph unicode="&#xe619;" d="M372.672 444.8l-206.272 289.536c-121.984-121.984-145.6-429.248 29.312-604.224s478.208-155.328 604.224-29.312l-289.6 206.208c38.144 38.080 83.264 144.832 45.184 182.912-38.016 38.016-144.832-7.104-182.848-45.12zM244.608 805.312l68.608-68.608c137.152 94.528 326.272 81.024 448.256-40.96s135.488-311.104 40.96-448.256l68.608-68.608c131.456 175.488 117.888 425.152-41.664 584.704s-409.28 173.184-584.768 41.728zM374.528 661.888l60.288-68.352c64.704 32.384 144.512 12.864 190.848-33.472s61.888-127.168 29.504-191.552l73.344-59.584c71.424 108.992 49.28 234.752-35.008 319.040s-210.944 106.368-318.976 33.92z" />
<glyph unicode="&#xe61a;" d="M288 928c-16 0-32-12.8-32-32v-896c0-19.2 16-32 32-32h448c19.2 0 32 16 32 32v896c0 19.2-16 32-32 32h-448zM704 32h-384v768h384v-768z" />
<glyph unicode="&#xe61b;" d="M929.472 864.288v-832.032h-832.032v832.032h832.032zM961.504 928.32h-896.064c-17.6 0-32-14.4-32-32v-896.064c0-17.6 14.4-32 32-32h896.064c17.6 0 32 14.4 32 32v896.064c0 17.6-14.4 32-32 32v0zM320 480c0 52.928 43.072 96 96 96h190.592v-52.48c-0.032-3.136 2.656-5.824 5.952-8.096 3.264-2.304 7.136-3.424 11.584-3.424 4.8 0 8.768 1.088 11.872 3.264l125.92 84.48c3.104 2.176 4.672 4.928 4.672 8.256 0 3.36-1.536 6.112-4.672 8.256l-125.92 84.48c-3.072 2.176-7.040 3.264-11.872 3.264-0.032 0-0.064 0-0.096 0-4.448 0-8.288-1.152-11.552-3.424-3.264-2.304-5.952-4.992-5.952-8.096v-52.48h-189.152c-88.16 0-161.376-71.776-161.376-160l1.44-107.488 62.56 43.488zM704 480v-64c0-52.928-44.48-96-97.408-96h-189.152c-0.992 0-1.888 0.288-2.848 0.32v52.16c0.032 3.136-2.656 5.824-5.92 8.096-3.328 2.272-7.2 3.424-11.648 3.424-4.8 0-8.736-1.088-11.872-3.264l-125.92-84.48c-3.104-2.176-4.64-4.928-4.64-8.256 0-3.36 1.568-6.112 4.672-8.256l125.92-84.48c3.040-2.208 7.008-3.264 11.84-3.264 0.032 0 0.064 0 0.096 0 4.448 0 8.288 1.152 11.552 3.424 3.264 2.304 5.92 4.992 5.92 8.096v52.768c0.96-0.032 1.856-0.288 2.848-0.288h189.152c88.192 0 161.408 71.776 161.408 160v110.496l-64-46.496z" />
<glyph unicode="&#xe61c;" d="M929.472 864.288v-832.032h-832.032v832.032h832.032zM961.504 928.32h-896.064c-17.6 0-32-14.4-32-32v-896.064c0-17.6 14.4-32 32-32h896.064c17.6 0 32 14.4 32 32v896.064c0 17.6-14.4 32-32 32v0zM825.92 296.256l-125.92 84.48c-3.072 2.176-7.040 3.264-11.872 3.264-4.48 0-8.352-1.12-11.616-3.424s-5.952-4.992-5.952-8.096v-52.48c-48.512 0-87.808 31.712-124.992 74.912-0.416-0.576-0.768-1.088-1.184-1.632-11.936-16.608-24.416-33.952-37.696-51.2 44.48-49.088 95.552-86.080 163.872-86.080v-52.512c-0.032-3.136 2.656-5.824 5.952-8.096s7.168-3.392 11.616-3.392c4.8 0 8.768 1.088 11.872 3.264l125.92 84.48c3.104 2.176 4.672 4.928 4.672 8.256s-1.568 6.080-4.672 8.256zM257.44 640h-32v-64h32c49.184 0 88.928-32.64 126.592-76.832 1.504 2.080 2.912 4 4.448 6.144 10.912 15.2 22.368 31.040 34.432 46.88-44.864 49.952-96.352 87.808-165.472 87.808zM825.92 616.256l-125.92 84.48c-3.072 2.176-7.040 3.264-11.872 3.264-4.48 0-8.352-1.12-11.616-3.424s-5.952-4.992-5.952-8.096v-52.48c-106.528 0-169.376-87.488-230.144-172.032-54.624-76.096-106.304-147.968-182.976-147.968h-32v-64h32c109.536 0 176.192 92.768 235.008 174.624 53.664 74.752 104.416 145.376 178.144 145.376v-52.48c-0.032-3.136 2.656-5.824 5.952-8.096s7.136-3.424 11.584-3.424c4.8 0 8.768 1.088 11.872 3.264l125.92 84.48c3.104 2.176 4.672 4.928 4.672 8.256s-1.568 6.080-4.672 8.256z" />
<glyph unicode="&#xe61d;" d="M885.76 823.104c-4.992 4.992-10.752 7.744-17.408 8.448-6.656 0.64-11.968-1.088-16.064-5.248l-89.856-89.856c-150.848 131.904-379.392 127.488-523.136-16.256-149.952-149.952-149.952-393.088 0-543.040 142.464-142.464 373.376-149.44 520-21.312 8.384 7.36 14.848 16.256 3.392 30.848s-41.152 49.536-55.68 64.064c-14.528 14.528-23.936 7.232-34.368-0.576-93.76-70.144-250.624-74.688-342.848 17.472-99.84 99.84-99.84 262.208 0 362.048 93.632 93.632 241.664 98.24 342.144 16.256l-91.904-91.904c-4.096-4.096-5.824-9.472-5.248-16.064 0.64-6.592 3.456-12.416 8.448-17.408 5.376-5.376 11.136-8.32 17.408-8.896l272.192 1.024c6.272-0.576 11.648 1.28 16 5.696 4.416 4.416 6.272 9.728 5.696 16l0.128 271.296c-0.576 6.272-3.52 12.096-8.896 17.408z" />
<glyph unicode="&#xe61e;" d="M859.328 356.416c-17.216 6.784-60.672 21.632-80.576 26.752-19.84 5.12-24.256-5.888-29.312-17.92-45.248-108.032-178.112-191.488-304.32-158.784-35.328 9.152-66.368 26.112-93.312 47.36l91.392 91.392c4.096 4.096 5.824 9.472 5.248 16.064s-3.52 12.48-8.512 17.408c-5.376 5.376-11.2 8.32-17.472 8.896l-272.128-0.96c-6.336 0.576-11.648-1.344-16.064-5.696-4.352-4.416-6.272-9.792-5.696-16.064l-0.128-271.296c0.576-6.272 3.584-12.096 8.896-17.408 4.992-4.992 10.752-7.744 17.408-8.448s11.968 1.088 16.064 5.248l89.344 89.344c42.944-36.672 94.464-64.576 152.832-79.68 195.072-50.56 397.632 60.544 458.944 245.312 3.52 10.624 4.672 21.76-12.608 28.48zM886.336 820.16c-4.992 4.992-10.752 7.744-17.408 8.448-6.656 0.64-11.968-1.088-16.064-5.248l-89.344-89.344c-42.944 36.672-94.464 64.576-152.832 79.68-195.072 50.56-397.632-60.544-458.944-245.312-3.52-10.624-4.608-21.76 12.608-28.544 17.28-6.72 60.672-21.568 80.576-26.752 19.84-5.12 24.256 5.888 29.312 17.92 45.248 108.032 178.112 191.488 304.32 158.784 35.328-9.152 66.368-26.112 93.312-47.36l-91.328-91.392c-4.096-4.096-5.824-9.408-5.184-16.064 0.64-6.592 3.456-12.416 8.448-17.408 5.376-5.376 11.136-8.32 17.408-8.896l272.192 1.024c6.272-0.576 11.648 1.28 16 5.696 4.416 4.416 6.272 9.728 5.696 16l0.128 271.296c-0.64 6.336-3.584 12.16-8.896 17.472z" />
<glyph unicode="&#xe61f;" d="M929.472 864.288v-832.032h-832.032v832.032h832.032zM961.504 928.32h-896.064c-17.6 0-32-14.4-32-32v-896.064c0-17.6 14.4-32 32-32h896.064c17.6 0 32 14.4 32 32v896.064c0 17.6-14.4 32-32 32v0zM695.808 461.76l-261.824 172.8c-5.44 3.616-12.384 5.408-20.896 5.408-7.904 0.032-14.752-1.856-20.48-5.696-5.728-3.776-8.608-8.288-8.608-13.504v-345.6c-0.032-5.216 2.848-9.728 8.608-13.504 5.792-3.776 12.608-5.696 20.48-5.696 8.448 0 15.424 1.792 20.896 5.408l261.824 172.8c5.472 3.616 8.192 8.224 8.192 13.792 0 5.6-2.72 10.176-8.192 13.792z" />
<glyph unicode="&#xe620;" d="M1022.528 595.456c-4.032 12.416-15.552 20.864-28.608 21.12l-340.992 6.784-111.936 316.16c-4.288 12.288-15.936 20.48-28.992 20.48s-24.64-8.192-28.992-20.416l-111.936-316.16-340.928-6.784c-13.12-0.32-24.64-8.768-28.672-21.184-4.032-12.352 0.32-25.92 10.816-33.728l271.488-202.176-98.624-320.128c-3.84-12.416 0.704-25.856 11.2-33.536 10.56-7.68 24.832-7.872 35.584-0.512l280.064 191.36 280.064-191.36c5.248-3.584 11.328-5.376 17.408-5.376 6.4 0 12.736 1.984 18.176 5.888 10.56 7.68 15.040 21.12 11.2 33.536l-98.688 320.128 271.552 202.176c10.496 7.808 14.848 21.376 10.816 33.728z" />
<glyph unicode="&#xe621;" d="M832 256v448l128 128-64 64-128-128h-448v192h-128v-192h-192v-128h192v-512h512v-192h128v192h192v128h-192zM640 640l-320-320v320h320zM384 256l320 320v-320h-320z" />
<glyph unicode="&#xe622;" d="M895.872 896h-768c-35.2 0-64-28.8-64-64v-768c0-35.2 28.8-64 64-64h768c35.2 0 64 28.8 64 64v768c0 35.2-28.8 64-64 64zM448 217.6c0-6.912-2.88-12.928-8.64-18.048-5.696-5.056-12.544-7.552-20.48-7.552-8.512 0-15.488 2.432-20.864 7.232l-261.824 230.4c-5.44 4.8-8.192 10.944-8.192 18.368s2.752 13.568 8.192 18.368l261.824 230.4c5.504 4.8 12.416 7.232 20.864 7.232 7.872 0 14.72-2.496 20.48-7.552 5.824-5.056 8.704-11.072 8.64-18.048v-460.8zM887.808 429.632l-261.824-230.4c-5.504-4.8-12.416-7.232-20.864-7.232-7.872 0-14.72 2.496-20.48 7.552-5.824 5.056-8.704 11.072-8.64 18.048v460.8c0 6.912 2.88 12.928 8.64 18.048 5.696 5.056 12.544 7.616 20.48 7.552 8.512 0 15.488-2.432 20.864-7.232l261.824-230.4c5.44-4.8 8.192-10.944 8.192-18.368s-2.752-13.568-8.192-18.368z" />
<glyph unicode="&#xe623;" d="M384 864.32c0 17.6 14.4 32 32 32h512c17.6 0 32-14.4 32-32v-128c0-17.6-14.4-32-32-32h-512c-17.6 0-32 14.4-32 32v128zM64 864.32c0 17.6 14.4 32 32 32h128c17.6 0 32-14.4 32-32v-128c0-17.6-14.4-32-32-32h-128c-17.6 0-32 14.4-32 32v128zM384 544.32c0 17.6 14.4 32 32 32h512c17.6 0 32-14.4 32-32v-128c0-17.6-14.4-32-32-32h-512c-17.6 0-32 14.4-32 32v128zM64 544.32c0 17.6 14.4 32 32 32h128c17.6 0 32-14.4 32-32v-128c0-17.6-14.4-32-32-32h-128c-17.6 0-32 14.4-32 32v128zM384 224.32c0 17.6 14.4 32 32 32h512c17.6 0 32-14.4 32-32v-128c0-17.6-14.4-32-32-32h-512c-17.6 0-32 14.4-32 32v128zM64 224.32c0 17.6 14.4 32 32 32h128c17.6 0 32-14.4 32-32v-128c0-17.6-14.4-32-32-32h-128c-17.6 0-32 14.4-32 32v128z" />
<glyph unicode="&#xe624;" d="M576 864.32c0 17.6 14.4 32 32 32h320c17.6 0 32-14.4 32-32v-320c0-17.6-14.4-32-32-32h-320c-17.6 0-32 14.4-32 32v320zM64 864.32c0 17.6 14.4 32 32 32h320c17.6 0 32-14.4 32-32v-320c0-17.6-14.4-32-32-32h-320c-17.6 0-32 14.4-32 32v320zM576 352.32c0 17.6 14.4 32 32 32h320c17.6 0 32-14.4 32-32v-320c0-17.6-14.4-32-32-32h-320c-17.6 0-32 14.4-32 32v320zM64 352.32c0 17.6 14.4 32 32 32h320c17.6 0 32-14.4 32-32v-320c0-17.6-14.4-32-32-32h-320c-17.6 0-32 14.4-32 32v320z" />
<glyph unicode="&#xe625;" d="M896 704v-512h-768v512h768zM992 832h-960c-19.2 0-32-12.8-32-32v-704c0-19.2 12.8-32 32-32h960c19.2 0 32 12.8 32 32v704c0 19.2-12.8 32-32 32v0zM384 544c0-25.6-6.4-51.2-25.6-70.4s-44.8-25.6-70.4-25.6-51.2 6.4-70.4 25.6c-19.2 19.2-25.6 44.8-25.6 70.4s6.4 51.2 25.6 70.4c19.2 19.2 44.8 25.6 70.4 25.6s51.2-6.4 70.4-25.6c12.8-19.2 25.6-44.8 25.6-70.4zM512 512l64-64 128 128 128-128v-192h-576z" />
<glyph unicode="&#xe626;" d="M64 774.4h896v-576h-896v576z" />
<glyph unicode="&#xe627;" d="M192 704h512v-384h-512v384zM832 896v-768h-768v768h768zM832 960h-768c-32 0-64-32-64-64v-768c0-38.4 32-64 64-64h768c38.4 0 64 25.6 64 64v768c0 32-25.6 64-64 64v0z" />
<glyph unicode="&#xe628;" d="M386.112 637.184c0 35.328-12.48 65.472-37.504 90.496-24.96 24.96-55.168 37.504-90.496 37.504s-65.472-12.544-90.496-37.504c-24.96-25.024-37.504-55.168-37.504-90.496s12.48-65.472 37.504-90.496 55.168-37.504 90.496-37.504 65.472 12.48 90.496 37.504c25.024 24.96 37.504 55.168 37.504 90.496zM898.112 363.264c0-20.864-7.296-38.656-21.888-53.248l-290.368-291.008c-15.36-14.592-33.28-21.888-53.824-21.888-20.864 0-38.656 7.296-53.248 21.888l-422.848 423.488c-14.976 14.592-27.712 34.496-38.144 59.776-10.432 25.216-15.68 48.256-15.68 69.184v246.016c0 20.544 7.488 38.272 22.464 53.248s32.704 22.464 53.248 22.464h246.016c20.864 0 43.968-5.248 69.184-15.68 25.28-10.432 45.376-23.168 60.352-38.144l422.848-422.272c14.592-15.36 21.888-33.28 21.888-53.824z" />
<glyph unicode="&#xe629;" d="M832 896v-768h-768v768h768zM896 960h-832c-38.4 0-64-25.6-64-64v-832c0-38.4 25.6-64 64-64h832c38.4 0 64 25.6 64 64v832c0 38.4-25.6 64-64 64v0zM192 704h512v-384h-512v384z" />
<glyph unicode="&#xe62a;" d="M787.456 896c28.16 0 49.856-10.56 65.088-31.872s18.688-46.080 10.304-74.24l-162.56-535.808c-13.696-45.312-27.328-74.56-40.832-87.68s-37.952-19.712-73.408-19.712h-496.512c-10.304 0-17.536-2.88-21.696-8.576-4.224-6.080-4.416-14.272-0.576-24.576 1.344-51.456 36.544-113.28 82.24-113.28h553.792c11.072 0 21.696 2.944 32 8.832s16.96 13.824 19.968 23.68l174.080 581.888c2.688 8.384 3.584 19.264 2.88 32.576 14.464-5.696 25.728-13.888 33.728-24.576h-0.192c15.232-21.696 18.688-46.272 10.304-73.728l-159.808-526.656c-7.232-24.384-21.824-44.864-43.712-61.44-21.888-16.512-45.184-24.832-69.952-24.832h-553.792c-29.312 0-57.6 10.176-84.8 30.592-27.2 20.352-51.392 65.536-56.832 139.456-9.152 25.536-9.536 49.728-1.152 72.512 0 1.536 0.576 6.656 1.728 15.424s1.92 15.808 2.304 21.12c0.384 3.072-0.192 7.168-1.728 12.288s-2.112 8.832-1.728 11.136c0.768 4.224 2.304 8.192 4.544 11.968 2.304 3.776 5.44 8.256 9.408 13.44 3.968 5.12 7.168 9.6 9.408 13.44 8.768 14.464 20.032 40.96 28.416 61.376 8.384 20.352 14.080 37.824 17.152 52.288 1.216 3.776 1.28 9.472 0.384 17.152-0.96 7.616-1.088 12.928-0.32 16 1.152 4.224 4.416 9.536 9.728 16s8.576 10.88 9.728 13.12c8 13.696 16 31.232 24 52.544s12.736 38.464 14.272 51.392c0.384 3.456-0.064 9.536-1.408 18.304s-1.28 14.080 0.256 16c1.536 4.928 5.696 10.752 12.608 17.408s11.072 10.944 12.608 12.864c7.232 9.92 15.36 25.984 24.256 48.256 8.96 22.272 14.208 40.64 15.744 55.104 0.32 3.136-0.256 8-1.792 14.656s-1.92 11.712-1.152 15.104c0.768 3.072 2.496 6.464 5.184 10.304s6.144 8.192 10.304 13.12c4.16 4.928 7.424 8.96 9.728 11.968 3.072 4.608 6.208 10.368 9.408 17.408 3.264 7.040 9.472 22.848 11.904 29.184 2.432 6.272 5.504 13.12 9.152 20.608 3.648 7.424 7.36 13.504 11.2 18.304 3.776 4.736 8.832 9.216 15.104 13.44 6.272 4.16 13.184 6.528 20.608 6.72h490.432zM310.72 631.104c-1.536-4.928-1.152-9.216 1.088-12.864 2.304-3.648 6.080-5.44 11.456-5.44h347.328c4.928 0 9.792 1.792 14.528 5.44s7.872 7.872 9.408 12.864l32.768 91.264c1.536 4.928 1.152 9.216-1.152 12.864s-6.080 5.44-11.456 5.44h-347.264c-4.928 0-9.792-1.792-14.528-5.44-4.736-3.584-7.872-7.872-9.408-12.864l-32.768-91.264zM239.936 430.784c-1.536-4.992-1.152-9.28 1.152-12.928s6.080-5.44 11.456-5.44h347.328c4.928 0 9.792 1.792 14.528 5.44 4.736 3.584 7.872 7.872 9.408 12.864l35.392 90.688c1.536 4.928 1.152 9.216-1.152 12.864s-6.080 5.44-11.456 5.44h-347.264c-4.928 0-9.792-1.792-14.528-5.44-4.8-3.584-7.936-7.872-9.472-12.864l-35.392-90.624z" />
<glyph unicode="&#xe62b;" d="M953.6 960h-883.2c-38.4 0-70.4-32-70.4-70.4v-889.6c0-32 32-64 70.4-64h889.6c38.4 0 70.4 32 70.4 70.4v883.2c-6.4 38.4-38.4 70.4-76.8 70.4v0z" />
<glyph unicode="&#xe62c;" d="M896 896h-768c-38.4 0-64-25.6-64-64v-768c0-38.4 25.6-64 64-64h768c38.4 0 64 25.6 64 64v768c0 38.4-25.6 64-64 64v0z" />
<glyph unicode="&#xe62d;" d="M896 832v-768h-768v768h768zM896 896h-768c-38.4 0-64-25.6-64-64v-768c0-38.4 25.6-64 64-64h768c38.4 0 64 25.6 64 64v768c0 38.4-25.6 64-64 64v0zM256 704h512v-512h-512v512z" />
<glyph unicode="&#xe62e;" d="M447.68 703.040l-102.016-325.12h231.36l-78.144 325.12h-51.2zM599.68 313.92h-272.256l-57.088-184.448 128-64v-32l-334.336-1.152v32l128 64 256 768h128l255.68-768 128-64v-32l-442.112 0.576v32l140.672 64-58.56 185.024z" />
<glyph unicode="&#xe62f;" d="M782.464 259.264c0 142.592-88 192.192-224.256 192.192h-128.128v-378.24h64.064c158.272 0 288.32 43.456 288.32 186.048zM494.144 820.608h-64.064v-303.424h64.064c160.256 0 220.736 61.12 220.736 161.088s-84.48 142.336-220.736 142.336zM878.592 713.92c0-133.888-75.968-205.952-160.192-216.64 84.416-15.296 224.32-53.44 224.32-231.872s-195.52-265.344-302.016-265.344h-512.64v32.064l128.128 64.064 0.128 703.616-128.192 64.064v32.064h512.576c111.808 0 237.888-48.128 237.888-182.016z" />
<glyph unicode="&#xe630;" d="M177.408 1.152l14.592 32 115.712 64 212.224 702.656-135.936 65.344 20.096 32 448.064 0.32-20.096-32-120.064-65.344-212.16-702.656 140.288-64-14.592-32-448.128-0.32z" />
<glyph unicode="&#xe631;" d="M512 960c-281.6 0-512-230.4-512-512s230.4-512 512-512 512 230.4 512 512-230.4 512-512 512zM800 384h-224v-224c0-19.2-12.8-32-32-32h-64c-19.2 0-32 12.8-32 32v224h-224c-19.2 0-32 12.8-32 32v64c0 19.2 12.8 32 32 32h224v224c0 19.2 12.8 32 32 32h64c19.2 0 32-12.8 32-32v-224h224c19.2 0 32-12.8 32-32v-64c0-19.2-12.8-32-32-32z" />
<glyph unicode="&#xe632;" d="M512 960c-281.6 0-512-230.4-512-512s230.4-512 512-512c281.6 0 512 230.4 512 512s-230.4 512-512 512zM512 64c-211.2 0-384 172.8-384 384s172.8 384 384 384c211.2 0 384-172.8 384-384s-172.8-384-384-384zM736 512h-160v160c0 19.2-12.8 32-32 32h-64c-19.2 0-32-12.8-32-32v-160h-160c-19.2 0-32-12.8-32-32v-64c0-19.2 12.8-32 32-32h160v-160c0-19.2 12.8-32 32-32h64c19.2 0 32 12.8 32 32v160h160c19.2 0 32 12.8 32 32v64c0 19.2-12.8 32-32 32z" />
<glyph unicode="&#xe633;" d="M1023.68 96c0 17.6-14.4 32-32 32h-959.68c-17.6 0-32-14.4-32-32v-63.68c0-17.6 14.4-32 32-32h959.68c17.6 0 32 14.4 32 32v63.68zM831.68 352c0 17.6-14.4 32-32 32h-767.68c-17.6 0-32-14.4-32-32v-63.68c0-17.6 14.4-32 32-32h767.68c17.6 0 32 14.4 32 32v63.68zM959.68 608c0 17.6-14.4 32-32 32h-895.68c-17.6 0-32-14.4-32-32v-63.68c0-17.6 14.4-32 32-32h895.68c17.6 0 32 14.4 32 32v63.68zM703.68 864c0 17.6-14.4 32-32 32h-639.68c-17.6 0-32-14.4-32-32v-63.68c0-17.6 14.4-32 32-32h639.68c17.6 0 32 14.4 32 32v63.68z" />
<glyph unicode="&#xe634;" d="M1023.68 95.040c0 17.6-14.4 32.064-32 32.064h-959.68c-17.6 0-32-14.4-32-32.064v-63.744c0-17.6 14.4-32.064 32-32.064h959.68c17.6 0 32 14.4 32 32.064v63.744zM831.68 351.296c0 17.6-14.4 32.064-32 32.064h-575.68c-17.6 0-32-14.464-32-32.064v-63.744c0-17.6 14.4-32.064 32-32.064h575.68c17.6 0 32 14.4 32 32.064v63.744zM959.68 607.616c0 17.6-14.4 32.064-32 32.064h-831.68c-17.6-0.064-32-14.464-32-32.064v-63.744c0-17.6 14.4-32.064 32-32.064h831.68c17.6 0 32 14.4 32 32.064v63.744zM703.68 863.872c0 17.6-14.4 32.064-32 32.064h-319.68c-17.6 0-32-14.4-32-32.064v-63.744c0-17.6 14.4-32.064 32-32.064h319.68c17.6 0 32 14.4 32 32.064v63.744z" />
<glyph unicode="&#xe635;" d="M0 96c0 17.6 14.4 32 32 32h959.68c17.6 0 32-14.4 32-32v-63.68c0-17.6-14.4-32-32-32h-959.68c-17.6 0-32 14.4-32 32v63.68zM192 352c0 17.6 14.4 32 32 32h767.68c17.6 0 32-14.4 32-32v-63.68c0-17.6-14.4-32-32-32h-767.68c-17.6 0-32 14.4-32 32v63.68zM64 608c0 17.6 14.4 32 32 32h895.68c17.6 0 32-14.4 32-32v-63.68c0-17.6-14.4-32-32-32h-895.68c-17.6 0-32 14.4-32 32v63.68zM320 864c0 17.6 14.4 32 32 32h639.68c17.6 0 32-14.4 32-32v-63.68c0-17.6-14.4-32-32-32h-639.68c-17.6 0-32 14.4-32 32v63.68z" />
<glyph unicode="&#xe636;" d="M0 96c0 17.6 14.4 32 32 32h959.68c17.6 0 32-14.4 32-32v-63.68c0-17.6-14.4-32-32-32h-959.68c-17.6 0-32 14.4-32 32v63.68zM0 352c0 17.6 14.4 32 32 32h959.68c17.6 0 32-14.4 32-32v-63.68c0-17.6-14.4-32-32-32h-959.68c-17.6 0-32 14.4-32 32v63.68zM0 608c0 17.6 14.4 32 32 32h959.68c17.6 0 32-14.4 32-32v-63.68c0-17.6-14.4-32-32-32h-959.68c-17.6 0-32 14.4-32 32v63.68zM0 864c0 17.6 14.4 32 32 32h959.68c17.6 0 32-14.4 32-32v-63.68c0-17.6-14.4-32-32-32h-959.68c-17.6 0-32 14.4-32 32v63.68z" />
<glyph unicode="&#xe637;" d="M396.8 275.2h-179.2l-22.4-83.2h-163.2l192 508.8h172.8l192-508.8h-166.4l-25.6 83.2zM364.8 387.2l-57.6 182.4-54.4-182.4h112zM723.2 441.6l-134.4 12.8c6.4 22.4 12.8 41.6 22.4 54.4s22.4 25.6 41.6 35.2c12.8 6.4 32 12.8 54.4 16s48 6.4 73.6 6.4c41.6 0 76.8-3.2 102.4-6.4s48-16 64-28.8c12.8-9.6 22.4-25.6 28.8-44.8s9.6-38.4 9.6-54.4v-163.2c0-16 0-32 3.2-41.6s6.4-22.4 16-38.4h-134.4c-6.4 9.6-9.6 16-9.6 22.4-3.2 6.4-3.2 12.8-6.4 22.4-19.2-19.2-38.4-32-54.4-38.4-25.6-9.6-54.4-16-86.4-16-44.8 0-76.8 9.6-99.2 32-28.8 22.4-38.4 48-38.4 76.8s9.6 51.2 25.6 70.4 48 32 89.6 41.6c54.4 9.6 86.4 19.2 102.4 22.4s32 9.6 51.2 16c0 16-3.2 28.8-9.6 35.2s-19.2 9.6-38.4 9.6c-22.4 0-41.6-3.2-51.2-9.6s-19.2-16-22.4-32zM844.8 368c-19.2-6.4-38.4-12.8-60.8-19.2-28.8-6.4-48-16-54.4-22.4s-12.8-16-12.8-25.6c0-9.6 3.2-19.2 12.8-28.8 6.4-6.4 19.2-9.6 35.2-9.6s32 3.2 44.8 12.8c12.8 6.4 22.4 16 28.8 28.8 6.4 9.6 9.6 25.6 9.6 41.6v22.4z" />
<glyph unicode="&#xe638;" d="M0 96c0 17.6 14.4 32 32 32h959.68c17.6 0 32-14.4 32-32v-63.68c0-17.6-14.4-32-32-32h-959.68c-17.6 0-32 14.4-32 32v63.68zM384 352c0 17.6 14.4 32 32 32h575.68c17.6 0 32-14.4 32-32v-63.68c0-17.6-14.4-32-32-32h-575.68c-17.6 0-32 14.4-32 32v63.68zM384 608c0 17.6 14.4 32 32 32h575.68c17.6 0 32-14.4 32-32v-63.68c0-17.6-14.4-32-32-32h-575.68c-17.6 0-32 14.4-32 32v63.68zM0 864c0 17.6 14.4 32 32 32h959.68c17.6 0 32-14.4 32-32v-63.68c0-17.6-14.4-32-32-32h-959.68c-17.6 0-32 14.4-32 32v63.68zM256.96 626.048v-345.6c0-5.184-2.304-9.728-6.912-13.504-4.608-3.84-10.048-5.696-16.384-5.696-6.784 0-12.352 1.792-16.704 5.44l-209.472 172.8c-4.352 3.584-6.528 8.128-6.528 13.76 0 5.568 2.176 10.176 6.592 13.76l209.472 172.8c4.352 3.584 9.92 5.44 16.704 5.44 6.272 0 11.776-1.92 16.384-5.696s6.912-8.32 6.848-13.504z" />
<glyph unicode="&#xe639;" d="M0 96c0 17.6 14.4 32 32 32h959.68c17.6 0 32-14.4 32-32v-63.68c0-17.6-14.4-32-32-32h-959.68c-17.6 0-32 14.4-32 32v63.68zM384 352c0 17.6 14.4 32 32 32h575.68c17.6 0 32-14.4 32-32v-63.68c0-17.6-14.4-32-32-32h-575.68c-17.6 0-32 14.4-32 32v63.68zM384 608c0 17.6 14.4 32 32 32h575.68c17.6 0 32-14.4 32-32v-63.68c0-17.6-14.4-32-32-32h-575.68c-17.6 0-32 14.4-32 32v63.68zM0 864c0 17.6 14.4 32 32 32h959.68c17.6 0 32-14.4 32-32v-63.68c0-17.6-14.4-32-32-32h-959.68c-17.6 0-32 14.4-32 32v63.68zM0.96 280.448v345.6c0 5.184 2.304 9.728 6.912 13.504 4.608 3.84 10.048 5.696 16.384 5.696 6.784 0 12.352-1.792 16.704-5.44l209.472-172.8c4.352-3.584 6.592-8.192 6.592-13.76s-2.176-10.176-6.592-13.76l-209.472-172.8c-4.352-3.584-9.92-5.44-16.704-5.44-6.272 0-11.776 1.92-16.384 5.696-4.672 3.776-6.912 8.256-6.912 13.504z" />
<glyph unicode="&#xe63a;" d="M611.2 384l-41.6-192h-28.8c-9.6 35.2-28.8 67.2-51.2 99.2s-51.2 57.6-80 80c-19.2-32-41.6-57.6-67.2-83.2s-51.2-44.8-76.8-64c-28.8-16-54.4-32-86.4-41.6s-57.6-12.8-83.2-12.8c-6.4 0-16 0-25.6 3.2l12.8 32c16-3.2 25.6-3.2 35.2-3.2 80 0 150.4 32 211.2 92.8 12.8 12.8 25.6 28.8 38.4 44.8s25.6 35.2 41.6 57.6c32 48 57.6 96 80 137.6l41.6 80c32 60.8 57.6 102.4 73.6 124.8s35.2 32 51.2 32c6.4 0 9.6 0 16-3.2 3.2-3.2 6.4-6.4 9.6-9.6s3.2-9.6 3.2-16c0-3.2 0-9.6-3.2-19.2 0-9.6-3.2-16-3.2-16l-67.2-313.6h32v-9.6h-32zM569.6 384h-147.2c25.6-19.2 48-38.4 67.2-60.8s35.2-44.8 54.4-73.6l25.6 134.4zM428.8 400h144l60.8 294.4c3.2 9.6 3.2 16 3.2 16 3.2 3.2 3.2 9.6 3.2 12.8 0 9.6-3.2 12.8-9.6 12.8s-16-9.6-28.8-25.6c-9.6-16-28.8-51.2-57.6-102.4-3.2-6.4-12.8-22.4-25.6-48-9.6-19.2-16-28.8-16-32l-41.6-76.8c-16-28.8-25.6-48-32-51.2zM918.4 448l-41.6-160c-3.2-16-6.4-32-6.4-41.6s3.2-16 6.4-22.4c3.2-6.4 9.6-9.6 12.8-9.6 9.6 0 22.4 9.6 41.6 32l6.4-6.4-3.2-6.4c-16-19.2-25.6-28.8-35.2-38.4-9.6-6.4-16-9.6-22.4-9.6-9.6 0-16 6.4-25.6 16-6.4 9.6-9.6 22.4-9.6 35.2 0 9.6 3.2 28.8 9.6 64l3.2 16c-9.6-25.6-25.6-48-41.6-70.4-28.8-38.4-57.6-57.6-86.4-57.6-16 0-28.8 6.4-38.4 19.2s-12.8 28.8-12.8 48c0 25.6 6.4 54.4 22.4 86.4 16 28.8 35.2 54.4 57.6 73.6s44.8 28.8 67.2 28.8c22.4 0 38.4-9.6 51.2-25.6l3.2 16 41.6 12.8zM867.2 393.6c-3.2 9.6-9.6 19.2-16 25.6-9.6 6.4-19.2 9.6-28.8 9.6-12.8 0-25.6-6.4-41.6-16-12.8-12.8-25.6-28.8-38.4-48-9.6-16-16-35.2-22.4-54.4s-9.6-35.2-9.6-48c0-16 3.2-25.6 9.6-35.2s12.8-12.8 25.6-12.8c12.8 0 28.8 6.4 41.6 19.2 16 12.8 28.8 28.8 41.6 54.4 9.6 12.8 16 25.6 19.2 38.4 6.4 12.8 9.6 32 16 54.4l3.2 12.8z" />
<glyph unicode="&#xe63b;" d="M470.4 332.8h-230.4l-51.2-140.8h-41.6l192 502.4h38.4l188.8-502.4h-41.6l-54.4 140.8zM256 368h201.6l-99.2 272h-3.2l-99.2-272zM835.2 192c-3.2 12.8-3.2 22.4-6.4 32 0 9.6-3.2 19.2-3.2 25.6-12.8-19.2-32-35.2-54.4-48s-48-19.2-73.6-19.2c-35.2 0-60.8 9.6-83.2 28.8-19.2 19.2-28.8 44.8-28.8 73.6 0 32 12.8 60.8 41.6 80s67.2 28.8 115.2 28.8h80v44.8c0 25.6-9.6 44.8-25.6 60.8s-38.4 22.4-70.4 22.4c-28.8 0-51.2-6.4-70.4-22.4s-28.8-32-28.8-51.2h-35.2v3.2c0 25.6 9.6 51.2 35.2 73.6s57.6 32 99.2 32c38.4 0 70.4-9.6 96-28.8s35.2-48 35.2-86.4v-176c0-12.8 0-25.6 3.2-38.4 0-12.8 3.2-22.4 6.4-35.2h-32zM704 220.8c28.8 0 54.4 6.4 76.8 19.2s38.4 32 48 51.2v76.8h-80c-35.2 0-64-6.4-86.4-22.4s-32-35.2-32-57.6c0-19.2 6.4-35.2 19.2-48s32-19.2 54.4-19.2z" />
<glyph unicode="&#xe63c;" d="M192 0.064l-128 128-64-192zM832.019 896.043l127.979-127.979-703.977-703.977-127.979 127.979 703.977 703.977z" />
<glyph unicode="&#xe63d;" d="M705.536 574.592c0 52.992-18.752 98.24-56.256 135.744s-82.752 56.256-135.744 56.256-98.24-18.752-135.744-56.256-56.256-82.752-56.256-135.744 18.752-98.24 56.256-135.744c37.504-37.504 82.752-56.256 135.744-56.256s98.24 18.752 135.744 56.256c37.504 37.504 56.256 82.752 56.256 135.744zM833.472 590.592c0-42.368-9.856-115.008-51.968-192s-196.16-358.592-196.16-358.592c-6.656-12.864-16.576-22.976-29.696-30.336s-27.2-11.072-42.176-11.072c-15.040 0-29.056 3.712-42.176 11.072s-22.784 17.536-29.056 30.336c0 0-156.736 286.592-196.736 358.592s-52.032 145.536-52.032 187.904c0 82.432 31.232 162.304 93.76 220.608s137.92 87.488 226.24 87.488c88.32 0 163.712-29.12 226.24-87.488s93.76-134.080 93.76-216.512v0z" />
<glyph unicode="&#xe63e;" d="M422.4 355.2h-192l-32-76.8c-9.6-19.2-12.8-32-12.8-41.6 0-6.4 3.2-12.8 9.6-19.2s22.4-9.6 44.8-9.6v-16h-153.6v12.8c19.2 3.2 35.2 9.6 38.4 12.8 12.8 12.8 25.6 35.2 41.6 70.4l172.8 406.4h12.8l172.8-409.6c12.8-32 25.6-54.4 38.4-64s25.6-16 48-16v-12.8h-195.2v12.8c19.2 0 32 3.2 38.4 9.6s9.6 12.8 9.6 19.2c0 9.6-6.4 28.8-16 51.2l-25.6 70.4zM412.8 384l-83.2 198.4-86.4-198.4h169.6zM812.8 249.6c-35.2-28.8-57.6-44.8-67.2-48-12.8-6.4-28.8-9.6-44.8-9.6-25.6 0-44.8 9.6-60.8 25.6s-22.4 38.4-22.4 64c0 16 3.2 32 12.8 44.8 9.6 16 28.8 35.2 54.4 48 25.6 16 70.4 35.2 128 54.4v12.8c0 35.2-6.4 57.6-16 70.4s-25.6 19.2-48 19.2c-16 0-28.8-3.2-38.4-12.8s-16-19.2-16-28.8v-22.4c0-12.8-3.2-19.2-9.6-25.6s-12.8-9.6-22.4-9.6c-9.6 0-16 3.2-22.4 9.6s-9.6 16-9.6 25.6c0 22.4 9.6 41.6 35.2 60.8 22.4 19.2 54.4 28.8 92.8 28.8 32 0 57.6-6.4 76.8-16 16-6.4 25.6-19.2 32-38.4 3.2-9.6 6.4-32 6.4-67.2v-115.2c0-32 0-54.4 3.2-60.8 0-6.4 3.2-12.8 6.4-16s6.4-3.2 9.6-3.2c3.2 0 6.4 0 9.6 3.2 6.4 3.2 16 12.8 32 28.8v-22.4c-28.8-38.4-54.4-57.6-83.2-57.6-12.8 0-22.4 3.2-28.8 12.8s-9.6 25.6-9.6 44.8zM812.8 275.2v134.4c-38.4-16-64-25.6-73.6-32-19.2-12.8-35.2-22.4-41.6-35.2s-12.8-25.6-12.8-41.6c0-19.2 6.4-32 16-44.8s22.4-19.2 38.4-19.2c16 0 41.6 12.8 73.6 38.4z" />
<glyph unicode="&#xe63f;" d="M512 745.6c163.2 0 297.6-134.4 297.6-297.6s-134.4-297.6-297.6-297.6-297.6 134.4-297.6 297.6 134.4 297.6 297.6 297.6zM512 800c-195.2 0-352-156.8-352-352s156.8-352 352-352 352 156.8 352 352-156.8 352-352 352v0zM672 448c0-88.366-71.634-160-160-160s-160 71.634-160 160c0 88.366 71.634 160 160 160s160-71.634 160-160z" />
<glyph unicode="&#xe640;" d="M448.128 256.064l-128 128-64-192zM768 394.88v-329.728h-640v640h332.224l128 128h-460.224c-70.4 0-128-57.6-128-128v-640c0-70.4 57.6-128 128-128h640c70.4 0 128 57.6 128 128v457.728l-128-128zM832.128 896.064l-448-448 128-128 448 448-128 128z" />
<glyph unicode="&#xe641;" d="M928 704v-512h-832v512h832zM960 768h-896c-16 0-32-12.8-32-32v-576c0-19.2 16-32 32-32h896c19.2 0 32 16 32 32v576c0 19.2-12.8 32-32 32v0zM320 320h-51.2v227.2h-51.2v41.6l102.4 9.6v-278.4zM582.4 320h-166.4v35.2l76.8 96c9.6 16 19.2 25.6 22.4 38.4 3.2 9.6 6.4 19.2 6.4 28.8 0 12.8-3.2 22.4-6.4 28.8s-12.8 9.6-22.4 9.6c-9.6 0-16-3.2-22.4-12.8s-6.4-19.2-6.4-35.2h-51.2c0 25.6 6.4 44.8 22.4 60.8s35.2 25.6 60.8 25.6c25.6 0 44.8-6.4 60.8-22.4s22.4-35.2 22.4-57.6c0-16-3.2-32-12.8-44.8s-22.4-32-41.6-57.6l-38.4-54.4h99.2v-38.4zM723.2 480c9.6 0 19.2 3.2 25.6 9.6s9.6 16 9.6 28.8c0 9.6-3.2 19.2-9.6 25.6s-12.8 9.6-22.4 9.6c-9.6 0-16-3.2-19.2-9.6s-9.6-12.8-9.6-25.6h-51.2c0 22.4 6.4 38.4 22.4 54.4s35.2 19.2 57.6 19.2c25.6 0 48-6.4 60.8-19.2s22.4-32 22.4-57.6c0-12.8-3.2-25.6-9.6-35.2s-16-19.2-28.8-25.6c12.8-6.4 22.4-12.8 32-25.6s9.6-25.6 9.6-38.4-9.6-44.8-25.6-57.6-38.4-22.4-64-22.4c-22.4 0-41.6 6.4-60.8 19.2s-25.6 32-25.6 57.6v0h51.2c0-9.6 3.2-19.2 9.6-25.6s12.8-9.6 22.4-9.6c9.6 0 19.2 3.2 25.6 9.6s9.6 16 9.6 28.8c0 16-3.2 25.6-9.6 32s-16 9.6-25.6 9.6h-28.8v48h32z" />
<glyph unicode="&#xe642;" d="M1005.632 670.656c12.416 12.416 12.416 32.832 0 45.248l-90.56 90.496c-6.208 6.208-14.4 9.344-22.656 9.344s-16.32-3.136-22.592-9.344l-320.64-320.64-139.648 139.584c-12.416 12.416-32.832 12.416-45.248 0l-90.496-90.496c-12.416-12.416-12.416-32.832 0-45.248l252.8-252.8c12.416-12.416 32.832-12.416 45.248 0l433.792 433.856zM830.4 314.432v-189.696h-640v640h456.704l128 128h-584.704c-70.4 0-128-57.6-128-128v-640c0-70.4 57.6-128 128-128h640c70.4 0 128 57.6 128 128v317.696l-128-128z" />
<glyph unicode="&#xe643;" d="M1016.768 461.056l-209.28 172.544c-4.352 3.584-9.92 5.376-16.704 5.376-6.336 0-11.776-1.856-16.384-5.696s-6.912-8.32-6.912-13.504v-108.672h-191.872v191.808h108.736c5.248 0 9.728 2.24 13.504 6.848s5.696 10.048 5.696 16.384c0 6.784-1.792 12.288-5.44 16.704l-172.672 209.152c-3.584 4.416-8.192 6.592-13.76 6.592s-10.176-2.176-13.76-6.592l-172.736-209.152c-3.584-4.352-5.376-9.856-5.376-16.64 0-6.336 1.856-11.776 5.696-16.384s8.32-6.848 13.504-6.848h108.736v-191.744h-191.936v108.608c0 5.184-2.24 9.728-6.912 13.504-4.544 3.776-10.048 5.696-16.32 5.696-6.784 0-12.352-1.792-16.704-5.376l-209.344-172.608c-4.352-3.584-6.528-8.192-6.528-13.76s2.176-10.176 6.528-13.76l209.344-172.544c4.352-3.584 9.92-5.376 16.704-5.376 6.336 0 11.776 1.856 16.384 5.696 4.608 3.776 6.912 8.32 6.912 13.504v108.544h191.872v-191.744h-108.736c-5.248 0-9.728-2.24-13.504-6.912s-5.696-10.048-5.696-16.384c0-6.784 1.792-12.288 5.44-16.704l172.672-209.152c3.584-4.288 8.192-6.464 13.76-6.464s10.176 2.176 13.76 6.528l172.672 209.152c3.584 4.352 5.44 9.92 5.44 16.704 0 6.336-1.856 11.776-5.696 16.384s-8.32 6.912-13.504 6.912h-108.736v191.68h191.872v-108.672c0-5.184 2.24-9.728 6.912-13.504 4.608-3.776 10.048-5.696 16.384-5.696 6.784 0 12.352 1.792 16.704 5.376l209.344 172.544c4.352 3.584 6.528 8.192 6.528 13.76 0 5.696-2.176 10.304-6.592 13.888z" />
<glyph unicode="&#xe644;" d="M640 832v-256h-256v256h256zM672 896h-320c-19.2 0-32-16-32-32v-320c0-19.2 16-32 32-32h320c19.2 0 32 16 32 32v320c0 19.2-12.8 32-32 32v0zM672 384h-320c-19.2 0-32-16-32-32v-320c0-19.2 16-32 32-32h320c19.2 0 32 16 32 32v86.4l-73.6-73.6c-16-16-35.2-22.4-57.6-22.4s-41.6 9.6-57.6 22.4l-19.2 19.2h-112v256h224l64 64zM793.6 393.6c-3.2 0-9.6 0-12.8-3.2l-208-208-86.4 86.4c-3.2 3.2-6.4 3.2-12.8 3.2s-9.6 0-12.8-3.2l-28.8-28.8c-6.4-6.4-6.4-16 0-22.4l128-128c3.2-3.2 6.4-3.2 12.8-3.2 3.2 0 9.6 0 12.8 3.2l249.6 249.6c6.4 6.4 6.4 16 0 22.4l-28.8 28.8c-6.4 3.2-9.6 3.2-12.8 3.2z" />
<glyph unicode="&#xe645;" d="M928 704v-512h-832v512h832zM960 768h-896c-16 0-32-12.8-32-32v-576c0-19.2 16-32 32-32h896c19.2 0 32 16 32 32v576c0 19.2-12.8 32-32 32v0zM864 608c0-16-16-32-32-32h-640c-19.2 0-32 12.8-32 32s12.8 32 32 32h640c16 0 32-12.8 32-32zM608 480c0-16-16-32-32-32h-384c-16 0-32 12.8-32 32s16 32 32 32h384c16 0 32-12.8 32-32zM864 352c0-16-16-32-32-32h-640c-19.2 0-32 12.8-32 32s16 32 32 32h640c16 0 32-12.8 32-32z" />
<glyph unicode="&#xe646;" d="M928 704v-512h-832v512h832zM960 768h-896c-16 0-32-12.8-32-32v-576c0-19.2 16-32 32-32h896c19.2 0 32 16 32 32v576c0 19.2-12.8 32-32 32v0zM665.6 448c0-28.8-9.6-51.2-25.6-70.4s-38.4-28.8-70.4-28.8c-9.6 0-19.2 3.2-25.6 9.6s-12.8 12.8-16 25.6c-6.4-9.6-12.8-19.2-19.2-22.4s-16-6.4-28.8-6.4c-19.2 0-32 6.4-41.6 22.4s-12.8 35.2-9.6 57.6c3.2 32 12.8 57.6 28.8 76.8s32 28.8 54.4 28.8c16 0 28.8-3.2 35.2-6.4s19.2-9.6 28.8-16v0 0l-9.6-105.6c0-9.6 0-19.2 3.2-22.4s6.4-6.4 9.6-6.4c12.8 0 25.6 6.4 35.2 19.2s12.8 32 12.8 51.2c3.2 41.6-6.4 76.8-25.6 99.2s-48 35.2-86.4 35.2c-38.4 0-67.2-12.8-89.6-38.4s-35.2-60.8-35.2-105.6c-3.2-41.6 6.4-76.8 25.6-102.4s48-38.4 86.4-38.4c9.6 0 22.4 0 32 3.2s22.4 6.4 28.8 9.6l6.4-32c-9.6-6.4-19.2-9.6-32-12.8s-25.6-3.2-38.4-3.2c-51.2 0-89.6 16-115.2 48s-38.4 73.6-38.4 128c3.2 54.4 19.2 96 48 128s70.4 48 118.4 48c48 0 86.4-16 112-44.8s44.8-73.6 41.6-128zM476.8 428.8c0-16 0-25.6 3.2-35.2s9.6-12.8 16-12.8c6.4 0 12.8 3.2 19.2 6.4s9.6 9.6 12.8 22.4l6.4 83.2c-3.2 0-6.4 0-9.6 0s-6.4 0-6.4 0c-12.8 0-22.4-6.4-28.8-16s-9.6-25.6-12.8-48z" />
<glyph unicode="&#xe647;" d="M128 832c0-678.4 384-832 384-832s384 153.6 384 832h-768zM512 704h249.6c-32-339.2-172.8-492.8-249.6-556.8v556.8z" />
<glyph unicode="&#xe648;" d="M928 704v-512h-832v512h832zM960 768h-896c-16 0-32-12.8-32-32v-576c0-19.2 16-32 32-32h896c19.2 0 32 16 32 32v576c0 19.2-12.8 32-32 32v0zM713.6 355.2l115.2 156.8c3.2 3.2 3.2 6.4 3.2 12.8 0 3.2 0 9.6-3.2 12.8s-6.4 6.4-9.6 6.4h-230.4c-3.2 0-6.4-3.2-9.6-6.4s-3.2-6.4-3.2-12.8c0-6.4 0-9.6 3.2-12.8l115.2-156.8c3.2-3.2 6.4-3.2 9.6-3.2s6.4 0 9.6 3.2z" />
<glyph unicode="&#xe649;" d="M832 704h-96v96c0 19.2-12.8 32-32 32h-64c-19.2 0-32-12.8-32-32v-96h-224v96c0 19.2-12.8 32-32 32h-64c-16 0-32-12.8-32-32v-96h-96c-16 0-32-12.8-32-32v-576c0-19.2 12.8-32 32-32h672c19.2 0 32 12.8 32 32v576c0 19.2-12.8 32-32 32zM320 128h-128v128h128v-128zM320 288h-128v128h128v-128zM320 448h-128v128h128v-128zM336 640h-32c-9.6 0-16 6.4-16 16v128c0 9.6 6.4 16 16 16h32c9.6 0 16-6.4 16-16v-128c0-9.6-6.4-16-16-16zM480 128h-128v128h128v-128zM480 288h-128v128h128v-128zM480 448h-128v128h128v-128zM640 128h-128v128h128v-128zM640 288h-128v128h128v-128zM640 448h-128v128h128v-128zM640 656v128c0 9.6 9.6 16 16 16h32c9.6 0 16-6.4 16-16v-128c0-9.6-6.4-16-16-16h-32c-6.4 0-16 6.4-16 16zM800 128h-128v128h128v-128zM800 288h-128v128h128v-128zM800 448h-128v128h128v-128z" />
<glyph unicode="&#xe64a;" d="M64 32c0 19.2 12.8 32 32 32h832c19.2 0 32-12.8 32-32v-64c0-19.2-12.8-32-32-32h-832c-19.2 0-32 12.8-32 32v64zM518.4 198.4l172.8 211.2c6.4 6.4 6.4 12.8 6.4 19.2s0 12.8-6.4 19.2c0 0-6.4 0-12.8 0h-102.4v352c0 19.2-12.8 32-32 32h-64c-19.2 0-32-12.8-32-32v-352h-115.2c-6.4 0-6.4 0-12.8-6.4s-6.4-12.8-6.4-19.2c0-6.4 0-12.8 6.4-19.2l172.8-211.2c0 0 6.4 0 12.8 0s12.8 0 12.8 6.4z" />
<glyph unicode="&#xe64b;" d="M960 448v384h-128v96c0 19.2-19.2 32-32 32h-704c-19.2 0-32-12.8-32-32v-256c0-19.2 12.8-32 32-32h704c12.8 0 32 12.8 32 32v96h64v-256h-448v-128h-32c-12.8 0-32-12.8-32-32v-384c0-19.2 19.2-32 32-32h128c19.2 0 32 12.8 32 32v384c0 19.2-12.8 32-32 32h-32v64h448z" />
<glyph unicode="&#xe64c;" d="M480 960v-128h384v-512h128v640zM288 768v-128h384v-512h128v640zM608 576h-512v-640h512v640z" />
<glyph unicode="&#xe64d;" d="M0 416c0 19.2 12.8 32 32 32h960c19.2 0 32-12.8 32-32v-192c0-19.2-12.8-32-32-32h-960c-19.2 0-32 12.8-32 32v192zM0 672c0 19.2 12.8 32 32 32h448c19.2 0 32-12.8 32-32v-64c0-19.2-12.8-32-32-32h-448c-19.2 0-32 12.8-32 32v64z" />
<glyph unicode="&#xe64e;" d="M576 736c0 19.2 12.8 32 32 32h384c19.2 0 32-12.8 32-32v-192c0-19.2-12.8-32-32-32h-384c-19.2 0-32 12.8-32 32v192zM0 736c0 19.2 12.8 32 32 32h384c19.2 0 32-12.8 32-32v-64c0-19.2-12.8-32-32-32h-384c-19.2 0-32 12.8-32 32v64zM576 352c0 19.2 12.8 32 32 32h384c19.2 0 32-12.8 32-32v-192c0-19.2-12.8-32-32-32h-384c-19.2 0-32 12.8-32 32v192zM0 352c0 19.2 12.8 32 32 32h384c19.2 0 32-12.8 32-32v-64c0-19.2-12.8-32-32-32h-384c-19.2 0-32 12.8-32 32v64z" />
<glyph unicode="&#xe64f;" d="M256 448c0-70.692-57.308-128-128-128s-128 57.308-128 128c0 70.692 57.308 128 128 128s128-57.308 128-128zM640 448c0-70.692-57.308-128-128-128s-128 57.308-128 128c0 70.692 57.308 128 128 128s128-57.308 128-128zM1024 448c0-70.692-57.308-128-128-128s-128 57.308-128 128c0 70.692 57.308 128 128 128s128-57.308 128-128z" />
<glyph unicode="&#xe650;" d="M928 704v-512h-832v512h832zM960 768h-896c-16 0-32-12.8-32-32v-576c0-19.2 16-32 32-32h896c19.2 0 32 16 32 32v576c0 19.2-12.8 32-32 32v0zM307.2 377.6h-70.4l-12.8-57.6h-57.6l76.8 272h54.4l76.8-272h-54.4l-12.8 57.6zM249.6 419.2h48l-22.4 86.4-25.6-86.4zM419.2 320v272h76.8c28.8 0 51.2-6.4 67.2-19.2s22.4-32 22.4-54.4c0-12.8-3.2-25.6-9.6-35.2s-16-16-25.6-22.4c16-3.2 25.6-9.6 35.2-22.4s9.6-25.6 9.6-41.6c0-25.6-6.4-44.8-22.4-60.8s-38.4-19.2-64-19.2h-89.6zM470.4 476.8h28.8c12.8 0 19.2 3.2 25.6 9.6s9.6 16 9.6 25.6c0 12.8-3.2 22.4-9.6 28.8s-16 9.6-28.8 9.6h-25.6v-73.6zM470.4 441.6v-80h38.4c12.8 0 19.2 3.2 25.6 9.6s9.6 16 9.6 28.8c0 12.8-3.2 22.4-9.6 28.8s-12.8 9.6-25.6 12.8h-38.4zM832 403.2v0c0-28.8-6.4-51.2-22.4-67.2s-38.4-22.4-67.2-22.4c-28.8 0-51.2 9.6-70.4 25.6s-25.6 44.8-25.6 76.8v80c0 32 9.6 57.6 25.6 73.6s38.4 25.6 67.2 25.6c28.8 0 54.4-6.4 70.4-22.4s22.4-35.2 22.4-67.2v0h-51.2c0 16-3.2 28.8-9.6 35.2s-16 9.6-32 9.6c-12.8 0-22.4-3.2-28.8-12.8s-9.6-25.6-9.6-44.8v-76.8c0-19.2 3.2-35.2 9.6-44.8s19.2-12.8 32-12.8c12.8 0 22.4 3.2 28.8 9.6s9.6 19.2 9.6 38.4h51.2z" />
<glyph unicode="&#xe651;" d="M576 896c-204.8 0-371.2-121.6-384-320h-121.6c-6.4 0-12.8 0-12.8-6.4-6.4-6.4-6.4-12.8-6.4-19.2s0-12.8 6.4-19.2l192-192c0-6.4 6.4-6.4 12.8-6.4s12.8 0 12.8 6.4l192 192c6.4 6.4 6.4 12.8 6.4 19.2s0 12.8-6.4 19.2c0 6.4-6.4 6.4-12.8 6.4h-134.4c12.8 128 121.6 192 256 192 140.8 0 262.4-134.4 262.4-288s-128-288-262.4-288-256 0-256 0v-128c0 0 25.6 0 256 0s390.4 185.6 390.4 416-179.2 416-390.4 416zM64 256h128v-256h-128v256z" />
<glyph unicode="&#xe652;" d="M793.6 512h-25.6v128c0 102.4-76.8 192-192 192h-128c-115.2 0-192-96-192-192v-128h-25.6c-19.2 0-38.4-19.2-38.4-38.4v-364.8c0-25.6 19.2-44.8 38.4-44.8h556.8c25.6 0 38.4 19.2 38.4 38.4v371.2c6.4 19.2-12.8 38.4-32 38.4zM640 512h-256v128c0 44.8 38.4 64 64 64h128c25.6 0 64-32 64-64v-128z" />
<glyph unicode="&#xe653;" d="M864 512c19.2 0 32-12.8 32-32v-64c0-19.2-12.8-32-32-32h-704c-19.2 0-32 12.8-32 32v64c0 19.2 12.8 32 32 32h704zM864 256c19.2 0 32-12.8 32-32v-64c0-19.2-12.8-32-32-32h-704c-19.2 0-32 12.8-32 32v64c0 19.2 12.8 32 32 32h704zM864 768c19.2 0 32-12.8 32-32v-64c0-19.2-12.8-32-32-32h-704c-19.2 0-32 12.8-32 32v64c0 19.2 12.8 32 32 32h704z" />
<glyph unicode="&#xe654;" d="M511.68 891.776c-247.424 0-448-200.576-448-448s200.576-448 448-448 448 200.576 448 448-200.576 448-448 448zM575.68 139.776c0-4.672-1.536-8.448-4.544-11.456s-6.784-4.544-11.52-4.544h-96c-4.672 0-8.512 1.536-11.52 4.544s-4.48 6.848-4.48 11.456v96c0 4.672 1.536 8.512 4.48 11.52 3.008 3.008 6.848 4.48 11.52 4.48h96c4.672 0 8.512-1.536 11.52-4.48 3.008-3.008 4.544-6.784 4.544-11.52v-96zM705.216 539.328c-4.288-14.592-9.088-26.496-14.4-35.776s-12.928-18.752-22.848-28.416-17.856-16.576-23.68-20.736c-5.824-4.16-14.208-9.792-25.216-16.896-11.328-7.488-20.672-17.28-28.032-29.248-7.36-12.032-11.008-44.928-11.008-52.416 0-5.504-1.6-10.048-4.608-13.568-3.072-3.584-7.040-5.312-11.84-5.312h-104.96c-5.312 0-9.664 1.984-13.12 5.952-3.456 3.84-5.184 8.896-5.184 15.040v23.68c0 29.376 9.984 56.896 29.952 82.56 20.032 25.664 41.984 44.608 65.984 56.896 18.304 9.664 31.232 19.52 38.848 29.568s11.456 35.2 11.456 49.664c0 12.544-7.168 23.808-21.44 33.728s-30.528 14.784-48.832 14.784c-19.84 0-36.224-4.544-49.152-13.696-12.544-9.152-28.928-26.688-49.088-52.544-3.456-4.608-8.192-6.912-14.272-6.912-4.608 0-8.192 1.152-10.88 3.456l-55.040 51.584c-7.872 6.144-9.28 13.376-4.16 21.568 43.904 73.024 107.456 109.504 190.784 109.504 29.824 0 58.944-7.040 87.36-21.12s52.16-33.92 71.232-59.648c19.008-25.728 28.544-53.632 28.544-83.776h0.064c0-15.104-2.112-43.328-6.464-57.92z" />
<glyph unicode="&#xe655;" d="M513.792 905.28c-247.424 0-448-200.576-448-448s200.576-448 448-448 448 200.576 448 448-200.576 448-448 448zM449.792 758.976c0 10.304 8 18.304 18.304 18.304h91.456c10.24 0 18.24-8 18.24-18.304v-91.392c0-10.304-8-18.304-18.24-18.304h-91.392c-10.304 0-18.304 8-18.304 18.304v91.392zM641.792 155.584c0-10.304-8-18.304-18.24-18.304h-219.392c-10.304 0-18.304 8-18.304 18.304v91.392c0 10.304 8 18.304 18.304 18.304h45.824v182.784h-45.824c-10.304 0-18.304 8-18.304 18.304v100.608c0 10.304 8 18.304 18.304 18.304h155.584c10.24 0 18.24-8 18.24-18.304v-301.76h45.632c10.24 0 18.24-8 18.24-18.304v-91.328z" />
<glyph unicode="&#xe656;" d="M608 896c-192 0-352-160-352-352 0-70.4 19.2-134.4 57.6-185.6l-262.4-262.4 108.8-108.8 262.4 262.4c51.2-38.4 115.2-57.6 185.6-57.6 192 0 352 160 352 352s-153.6 352-352 352zM608 320c-121.6 0-224 102.4-224 224s102.4 224 224 224c121.6 0 224-102.4 224-224s-102.4-224-224-224z" />
<glyph unicode="&#xe657;" d="M896 896v-224h-32l-64 96h-224v-640l128-64v-64h-384v64l128 64v640h-224l-64-96h-32v224z" />
<glyph unicode="&#xe658;" d="M422.4 326.4h-179.2v-6.4c0-38.4 6.4-57.6 25.6-76.8s44.8-25.6 76.8-25.6c19.2 0 32 0 44.8 6.4 12.8 0 32 6.4 44.8 12.8l6.4-89.6c-12.8-6.4-32-6.4-51.2-6.4s-32-6.4-51.2-6.4c-70.4 0-121.6 19.2-166.4 57.6s-64 76.8-64 140.8v-6.4h-44.8v64h57.6v64h-57.6v64h57.6v6.4c0 64 19.2 115.2 64 153.6s96 57.6 166.4 57.6c19.2 0 32 0 51.2-6.4 12.8 0 32-6.4 51.2-6.4l-12.8-89.6c-12.8 6.4-25.6 6.4-44.8 12.8s-32 0-44.8 0c-32 0-57.6-12.8-76.8-32s-32-51.2-32-89.6v-6.4h179.2v-64h-179.2v-64h179.2v-64zM806.4 307.2c0 19.2-6.4 38.4-19.2 51.2s-38.4 25.6-70.4 38.4c-64 19.2-108.8 44.8-140.8 70.4s-44.8 64-44.8 115.2c0 44.8 12.8 83.2 44.8 108.8s70.4 44.8 121.6 51.2v89.6h64v-89.6c51.2-6.4 89.6-25.6 121.6-57.6 25.6-32 44.8-70.4 38.4-121.6v0h-121.6c0 32-6.4 51.2-19.2 70.4-12.8 12.8-32 25.6-57.6 25.6s-44.8-6.4-57.6-19.2-19.2-32-19.2-51.2c0-19.2 6.4-38.4 19.2-51.2s38.4-25.6 70.4-38.4c64-19.2 108.8-44.8 140.8-70.4s44.8-64 44.8-115.2c0-44.8-12.8-83.2-44.8-115.2-32-25.6-70.4-44.8-128-51.2v-83.2h-64v76.8c-44.8 6.4-89.6 25.6-128 51.2s-51.2 70.4-51.2 128v0h115.2c0-32 6.4-57.6 25.6-76.8 19.2-12.8 38.4-19.2 70.4-19.2 25.6 0 44.8 6.4 64 19.2 19.2 19.2 25.6 38.4 25.6 64z" />
<glyph unicode="&#xe659;" d="M512 832c211.2 0 384-172.8 384-384s-172.8-384-384-384-384 172.8-384 384 172.8 384 384 384zM512 960c-281.6 0-512-230.4-512-512s230.4-512 512-512 512 230.4 512 512-230.4 512-512 512v0zM576 736c0 19.2-12.8 32-32 32h-64c-19.2 0-32-12.8-32-32v-224h-160c-19.2 0-32-12.8-32-32v-64c0-19.2 12.8-32 32-32h256c19.2 0 32 12.8 32 32v0 320z" />
<glyph unicode="&#xe65a;" d="M256 0l-256 448 256 448h512l256-448-256-448z" />
<glyph unicode="&#xe65b;" d="M928 889.6c-19.2 12.8-44.8 12.8-64 0l-256-172.8-217.6 166.4c-19.2 19.2-51.2 19.2-70.4 0l-288-192c-19.2-12.8-32-32-32-51.2v-576c0-25.6 12.8-44.8 32-57.6 12.8-6.4 19.2-6.4 32-6.4s25.6 6.4 38.4 12.8l249.6 166.4 217.6-166.4c19.2-19.2 51.2-19.2 76.8 0l288 192c19.2 12.8 25.6 32 25.6 51.2v576c0 25.6-12.8 44.8-32 57.6zM128 185.6v422.4l192 128v-422.4c0 0 0 0-6.4 0l-185.6-128zM390.4 307.2c0 0-6.4 0-6.4 6.4v416l185.6-140.8c0 0 6.4 0 6.4-6.4v-416l-185.6 140.8zM832 288l-192-128v422.4c0 0 0 0 6.4 0l185.6 128v-422.4z" />
<glyph unicode="&#xe65c;" d="M684.8 140.8l-25.6 25.6c-12.8 12.8-32 12.8-44.8 0l-102.4-102.4-102.4 102.4c-12.8 12.8-32 12.8-44.8 0l-25.6-25.6c-12.8-12.8-12.8-32 0-44.8l147.2-147.2c12.8-12.8 32-12.8 44.8 0l147.2 147.2c19.2 12.8 19.2 32 6.4 44.8zM339.2 755.2l25.6-25.6c12.8-12.8 32-12.8 44.8 0l102.4 102.4 102.4-102.4c12.8-12.8 32-12.8 44.8 0l25.6 25.6c12.8 12.8 12.8 32 0 44.8l-57.6 57.6-89.6 96c-12.8 6.4-32 6.4-44.8 0l-89.6-96-64-57.6c-12.8-12.8-12.8-32 0-44.8zM204.8 275.2l25.6 25.6c12.8 12.8 12.8 32 0 44.8l-96 102.4 102.4 102.4c12.8 12.8 12.8 32 0 44.8l-32 25.6c-12.8 12.8-32 12.8-44.8 0l-147.2-147.2c-12.8-12.8-12.8-32 0-44.8l147.2-147.2c12.8-19.2 32-19.2 44.8-6.4zM819.2 620.8l-25.6-25.6c-12.8-12.8-12.8-32 0-44.8l102.4-102.4-102.4-102.4c-12.8-12.8-12.8-32 0-44.8l25.6-25.6c12.8-12.8 32-12.8 44.8 0l147.2 147.2c12.8 12.8 12.8 32 0 44.8l-147.2 147.2c-12.8 19.2-32 19.2-44.8 6.4z" />
<glyph unicode="&#xe65d;" d="M480 768h-160v160c0 19.2-12.8 32-32 32h-64c-19.2 0-32-12.8-32-32v-160h-160c-19.2 0-32-12.8-32-32v-64c0-19.2 12.8-32 32-32h160v-160c0-19.2 12.8-32 32-32h64c19.2 0 32 12.8 32 32v160h160c19.2 0 32 12.8 32 32v64c0 19.2-12.8 32-32 32zM544 256c-19.2 0-32-12.8-32-32v-64c0-19.2 12.8-32 32-32h448c19.2 0 32 12.8 32 32v64c0 19.2-12.8 32-32 32h-448zM70.4 89.6c-12.8-12.8-12.8-32 0-44.8l32-32c12.8-12.8 32-12.8 44.8 0l825.6 819.2c12.8 12.8 12.8 32 0 44.8l-32 32c-12.8 12.8-32 12.8-44.8 0l-825.6-819.2z" />
<glyph unicode="&#xe65e;" d="M1013.184 595.712l-314.176 259.2c-6.592 5.44-14.912 8.128-25.088 8.128-9.472 0-17.664-2.816-24.576-8.512s-10.368-12.416-10.304-20.288v-131.2h-64c-271.616 0-438.272-39.232-499.968-192.704-20.16-51.072-30.272-114.496-30.272-190.272l0.064 0.064c0-63.232 24.192-149.12 72.576-257.664 1.152-2.688 3.136-7.232 6.016-13.696s5.44-12.224 7.744-17.152c2.304-4.928 4.8-9.152 7.424-12.608 4.608-6.464 9.92-9.728 16-9.728 5.696 0 10.176 1.92 13.44 5.696s4.864 8.576 4.864 14.272c0 3.456-0.448 8.512-1.408 15.168s-1.408 11.136-1.408 13.44c-1.92 25.92-2.88 49.344-2.88 70.272 0 38.464 3.328 72.96 9.984 103.424s15.872 56.832 27.712 79.104c11.84 22.272 27.072 41.536 45.696 57.728s38.72 29.44 60.288 39.68c21.504 10.304 46.848 18.368 75.968 24.256s58.432 9.984 88 12.288c29.44 2.24 62.848 2.432 100.16 2.432h64v-131.2c0-7.808 3.456-14.528 10.304-20.288 6.912-5.696 15.104-8.576 24.576-8.512 10.176 0 18.56 2.688 25.088 8.128l314.176 259.2c6.592 5.44 9.856 12.288 9.856 20.672s-3.264 15.232-9.856 20.672z" />
<glyph unicode="&#xe65f;" d="M488.192 424.128c-24.896 24.896-65.6 24.896-90.496 0l-200.192-200.128-90.176 90.24c-4.096 4.16-9.472 5.888-16.064 5.248-6.656-0.64-12.416-3.456-17.408-8.448-5.312-5.312-8.32-11.136-8.896-17.408l0.128-271.296c-0.576-6.272 1.28-11.648 5.696-16s9.728-6.336 16-5.76l272.192-1.024c6.272 0.576 12.096 3.52 17.408 8.896 5.056 4.992 7.872 10.752 8.448 17.408 0.64 6.656-1.152 11.968-5.248 16.064l-91.584 91.584 200.128 200.128c24.96 24.896 24.96 65.664 0.064 90.496zM960.832 872.832c0.576 6.272-1.28 11.648-5.696 16-4.416 4.416-9.728 6.272-16 5.696l-272.192 1.024c-6.272-0.576-12.096-3.52-17.408-8.896-4.992-4.992-7.808-10.752-8.448-17.408s1.152-11.968 5.248-16.064l90.176-90.176-202.304-202.304c-24.896-24.896-24.896-65.6 0-90.496s65.6-24.896 90.496 0l202.304 202.304 91.584-91.584c4.096-4.16 9.472-5.888 16.064-5.248 6.656 0.64 12.416 3.456 17.408 8.448 5.312 5.312 8.32 11.136 8.896 17.408l-0.128 271.296z" />
<glyph unicode="&#xe660;" d="M480 0c-19.2 0-32 12.8-32 32v832c0 19.2 12.8 32 32 32h64c19.2 0 32-12.8 32-32v-832c0-19.2-12.8-32-32-32h-64zM704 275.2v345.6c0 6.4 0 12.8 6.4 12.8 6.4 6.4 6.4 6.4 12.8 6.4s12.8 0 19.2-6.4l211.2-172.8c6.4 0 6.4-6.4 6.4-12.8s0-12.8-6.4-12.8l-211.2-172.8c-6.4-6.4-6.4-6.4-19.2-6.4-6.4 0-12.8 0-19.2 6.4 0 0 0 6.4 0 12.8zM320 620.8v-345.6c0-6.4 0-12.8-6.4-12.8-6.4-6.4-12.8-6.4-19.2-6.4s-12.8 0-19.2 6.4l-204.8 172.8c-6.4 0-6.4 6.4-6.4 12.8s0 12.8 6.4 12.8l211.2 172.8c0 6.4 6.4 6.4 12.8 6.4s12.8 0 19.2-6.4c0-6.4 6.4-6.4 6.4-12.8z" />
<glyph unicode="&#xe661;" d="M928 512h-352v352c0 17.6-14.4 32-32 32h-64c-17.6 0-32-14.4-32-32v-352h-352c-17.6 0-32-14.4-32-32v-64c0-17.6 14.4-32 32-32h352v-352c0-17.6 14.4-32 32-32h64c17.6 0 32 14.4 32 32v352h352c17.6 0 32 14.4 32 32v64c0 17.6-14.4 32-32 32z" />
<glyph unicode="&#xe662;" d="M128.96 480c0 17.6 14.4 32 32 32h704c17.6 0 32-14.4 32-32v-128c0-17.6-14.4-32-32-32h-704c-17.6 0-32 14.4-32 32v128z" />
<glyph unicode="&#xe663;" d="M849.792 327.424l-208.832 120.576 208.832 120.576c15.232 8.832 20.48 28.48 11.712 43.712l-32 55.424c-8.768 15.232-28.48 20.48-43.712 11.712l-208.832-120.576v241.152c0 17.6-14.4 32-32 32h-64c-17.6 0-32-14.4-32-32v-241.152l-208.832 120.576c-15.232 8.832-34.944 3.52-43.712-11.712l-32-55.424c-8.832-15.232-3.52-34.944 11.712-43.712l208.832-120.576-208.832-120.576c-15.232-8.832-20.48-28.48-11.712-43.712l32-55.424c8.832-15.232 28.48-20.544 43.712-11.712l208.832 120.576v-241.152c0-17.6 14.4-32 32-32h64c17.6 0 32 14.4 32 32v241.152l208.832-120.576c15.232-8.832 34.944-3.52 43.712 11.712l32 55.424c8.832 15.232 3.52 34.944-11.712 43.712z" />
<glyph unicode="&#xe664;" d="M448 697.6l-108.8-339.2h236.8l-76.8 339.2h-51.2zM608 294.4h-288l-57.6-192 134.4-64v-38.4h-352v32l134.4 64 268.8 800h128l268.8-800 134.4-64v-32h-460.8v32l147.2 64-57.6 198.4z" />
<glyph unicode="&#xe665;" d="M1024 352c0 19.2-12.8 32-32 32h-448c-19.2 0-32-12.8-32-32v-64c0-19.2 12.8-32 32-32h448c19.2 0 32 12.8 32 32v64zM1024 864c0 19.2-12.8 32-32 32h-448c-19.2 0-32-12.8-32-32v-64c0-19.2 12.8-32 32-32h448c19.2 0 32 12.8 32 32v64zM1024 608c0 19.2-12.8 32-32 32h-448c-19.2 0-32-12.8-32-32v-64c0-19.2 12.8-32 32-32h448c19.2 0 32 12.8 32 32v64zM960 96c0 19.2-12.8 32-32 32h-384c-19.2 0-32-12.8-32-32v-64c0-19.2 12.8-32 32-32h384c19.2 0 32 12.8 32 32v64zM364.8 192h-108.8v512h108.8c6.4 0 12.8 0 12.8 6.4 6.4 6.4 6.4 12.8 6.4 19.2s0 12.8-6.4 19.2l-172.8 204.8c0 6.4-6.4 6.4-12.8 6.4s-12.8 0-12.8-6.4l-172.8-211.2c-6.4 0-6.4-6.4-6.4-12.8s0-12.8 6.4-19.2c6.4-6.4 6.4-6.4 12.8-6.4h108.8v-512h-108.8c-6.4 0-12.8 0-12.8-6.4s-6.4-12.8-6.4-19.2c0-6.4 0-12.8 6.4-19.2l172.8-211.2c0 0 6.4 0 12.8 0s12.8 0 12.8 6.4l172.8 211.2c6.4 0 6.4 6.4 6.4 12.8s0 12.8-6.4 19.2c0 6.4-6.4 6.4-12.8 6.4z" />
<glyph unicode="&#xe666;" d="M512 832c211.2 0 384-172.8 384-384s-172.8-384-384-384-384 172.8-384 384 172.8 384 384 384zM512 960c-281.6 0-512-230.4-512-512s230.4-512 512-512 512 230.4 512 512-224 512-512 512v0zM422.4 537.6l-134.4-313.6 313.6 134.4 134.4 313.6-313.6-134.4z" />
<glyph unicode="&#xe667;" d="M768 128l-256 768h-128l-256-768-128-64v-32h332.8v32l-128 64 57.6 185.6h275.2l57.6-185.6-140.8-64v-32h441.6v32l-128 64zM281.6 377.6l102.4 326.4h51.2l76.8-326.4h-230.4zM780.8 633.6h230.4c6.4 0 6.4 0 6.4-6.4 6.4 0 6.4-6.4 6.4-6.4 0-6.4 0-6.4-6.4-12.8l-115.2-160c0-6.4-6.4-6.4-6.4-6.4s-6.4 0-6.4 6.4l-121.6 160c0 0 0 6.4 0 12.8s0 6.4 6.4 12.8c0 0 0 0 6.4 0zM1011.2 761.6h-230.4c-6.4 0-6.4 0-6.4 6.4-6.4 6.4-6.4 6.4-6.4 12.8s0 6.4 6.4 12.8l115.2 160c0 6.4 6.4 6.4 6.4 6.4 6.4 0 6.4 0 6.4-6.4l115.2-160c6.4-6.4 6.4-6.4 6.4-12.8s0-6.4-6.4-12.8c0-6.4-6.4-6.4-6.4-6.4z" />
<glyph unicode="&#xe668;" d="M512 828.224c-282.752 0-512-281.984-512-384s229.248-384 512-384 512 289.984 512 384-229.248 384-512 384zM512 188.224c-196.16 0-359.040 192.256-382.336 256 15.744 43.072 95.296 144.576 205.632 206.080-10.688-23.872-16.896-50.176-16.896-78.080 0-106.048 85.952-192 192-192s192 85.952 192 192c0 28.48-6.592 55.296-17.728 79.552 109.44-60.416 189.632-161.472 208.768-207.552-28.224-68.096-189.184-256-381.44-256z" />
<glyph unicode="&#xe669;" d="M689.344 923.84l-69.056-110.272c-34.944 9.024-71.040 14.656-108.288 14.656-282.752 0-512-281.984-512-384 0-61.76 84.928-188.736 214.144-279.808l-61.568-98.368 108.48-67.904 536.768 857.792-108.48 67.904zM129.664 444.224c15.744 43.072 95.296 144.576 205.632 206.080-10.688-23.872-16.896-50.176-16.896-78.080 0-56.064 24.64-105.6 62.976-140.48l-99.264-158.656c-81.984 59.904-139.392 135.424-152.448 171.136zM844.544 696.576l-68.48-109.44c61.184-52.864 104.128-110.976 117.376-142.848-27.52-66.304-180.928-245.632-366.4-255.104l-77.504-123.904c20.48-3.008 41.28-5.056 62.464-5.056 282.752 0 512 289.984 512 384 0 51.776-69.76 162.816-179.456 252.352z" />
<glyph unicode="&#xe66a;" d="M576 80.512v95.040c0 4.672-1.6 8.576-4.736 11.776-3.136 3.072-6.912 4.672-11.264 4.672h-96c-4.352 0-8.064-1.6-11.264-4.736s-4.736-7.104-4.736-11.776v-95.040c0-4.672 1.6-8.576 4.736-11.776 3.136-3.072 6.912-4.672 11.264-4.672h96c4.352 0 8.064 1.6 11.264 4.736s4.736 7.104 4.736 11.776zM576 272.512v350.976c0 4.672-1.6 8.576-4.736 11.776-3.136 3.136-6.912 4.736-11.264 4.736h-96c-4.352 0-8.064-1.6-11.264-4.736s-4.736-7.104-4.736-11.776v-351.040c0-4.672 1.6-8.576 4.736-11.776 3.136-3.072 6.912-4.672 11.264-4.672h96c4.352 0 8.064 1.6 11.264 4.736s4.736 7.104 4.736 11.776zM575.936 857.344l438.336-812.288c13.312-24.192 12.928-48.448-1.152-72.704-6.464-11.136-15.36-19.968-26.56-26.56-11.2-6.528-23.296-9.792-36.224-9.792h-876.672c-12.928 0-25.024 3.264-36.224 9.792s-20.096 15.424-26.56 26.56c-14.080 24.192-14.464 48.448-1.152 72.704l438.336 812.288c6.464 11.904 15.424 21.312 26.816 28.288s23.744 10.368 37.12 10.368c13.376 0 25.728-3.456 37.12-10.368s20.352-16.32 26.816-28.288z" />
<glyph unicode="&#xe66b;" d="M502.4 73.6c0-40.648-32.952-73.6-73.6-73.6s-73.6 32.952-73.6 73.6c0 40.648 32.952 73.6 73.6 73.6s73.6-32.952 73.6-73.6zM912 73.6c0-40.648-32.952-73.6-73.6-73.6s-73.6 32.952-73.6 73.6c0 40.648 32.952 73.6 73.6 73.6s73.6-32.952 73.6-73.6zM281.6 752l-35.2 128h-150.4c-22.4 0-38.4-19.2-38.4-41.6s16-41.6 38.4-41.6h89.6l169.6-636.8h553.6v83.2h-489.6l-19.2 70.4h508.8l57.6 390.4-684.8 48zM870.4 537.6h-147.2l12.8 112 150.4-9.6-16-102.4zM512 537.6l-28.8 131.2 214.4-16-12.8-115.2h-172.8zM678.4 508.8l-12.8-124.8h-121.6l-28.8 124.8c3.2 0 163.2 0 163.2 0zM441.6 668.8l28.8-134.4h-131.2l-38.4 144 140.8-9.6zM380.8 384l-32 124.8h131.2l28.8-124.8c-3.2 0-128 0-128 0zM707.2 384l12.8 124.8h147.2l-19.2-124.8h-140.8z" />
<glyph unicode="&#xe66c;" d="M928.128 832h-94.784v63.872c0 35.2-28.8 64-64 64h-64c-35.2 0-64-28.8-64-64v-63.872h-320v63.872c0 35.2-28.8 64-64 64h-64c-35.2 0-64-28.8-64-64v-63.872h-97.216c-17.6 0-32-14.4-32-32v-832c0-17.6 14.4-32 32-32h896c17.6 0 32 14.4 32 32v832c0 17.6-14.4 32-32 32zM320.128 64h-192v128h192v-128zM320.128 256h-192v128h192v-128zM320.128 448h-192v128h192v-128zM576.128 64h-192v128h192v-128zM576.128 256h-192v128h192v-128zM576.128 448h-192v128h192v-128zM832.128 64h-192v128h192v-128zM832.128 256h-192v128h192v-128zM832.128 448h-192v128h192v-128z" />
<glyph unicode="&#xe66d;" d="M71.68 734.72v-573.44h880.64v573.44h-880.64zM890.030 222.72h-757.76v450.55h757.76v-450.55zM820.367 565.299c0 11.305 9.175 20.48 20.48 20.48v13.65c-11.305 0-20.48 9.175-20.48 20.48h-13.65c0-11.305-9.175-20.48-20.48-20.48s-20.48 9.175-20.48 20.48h-13.66c0-11.305-9.175-20.48-20.48-20.48s-20.48 9.175-20.48 20.48h-13.65c0-11.305-9.175-20.48-20.48-20.48v-13.65c11.305 0 20.48-9.175 20.48-20.48s-9.175-20.48-20.48-20.48v-13.66c11.305 0 20.48-9.175 20.48-20.48s-9.175-20.48-20.48-20.48v-13.65c11.305 0 20.48-9.175 20.48-20.48h13.65c0 11.305 9.175 20.48 20.48 20.48s20.48-9.175 20.48-20.48h13.66c0 11.305 9.175 20.48 20.48 20.48s20.48-9.175 20.48-20.48h13.65c0 11.305 9.175 20.48 20.48 20.48v13.65c-11.305 0-20.48 9.175-20.48 20.48s9.175 20.48 20.48 20.48v13.66c-11.305 0-20.48 9.175-20.48 20.48zM799.887 497.029h-81.92v81.92h81.92v-81.92zM538.716 289.28h-323.092c-8.479 0-15.36 6.881-15.36 15.36s6.881 15.36 15.36 15.36h323.103c8.479 0 15.36-6.881 15.36-15.36s-6.881-15.36-15.37-15.36zM538.716 350.72h-323.092c-8.479 0-15.36 6.881-15.36 15.36s6.881 15.36 15.36 15.36h323.103c8.479 0 15.36-6.881 15.36-15.36s-6.881-15.36-15.37-15.36zM540.221 412.16h-326.103c-8.479 0-15.36 6.881-15.36 15.36s6.881 15.36 15.36 15.36h326.103c8.479 0 15.36-6.881 15.36-15.36s-6.881-15.36-15.36-15.36z" />
<glyph unicode="&#xe66e;" d="M0.128 511.104c0 205.312 213.056 384 511.872 384s511.936-194.688 511.936-384-237.12-384-511.936-384c0 0-54.272 1.536-82.88 4.544-75.456-66.624-163.072-112.768-262.848-138.24-18.688-5.312-40.384-9.536-65.152-12.608-6.464-0.768-12.288 0.96-17.472 5.184-5.12 4.224-8.448 9.728-9.984 16.576v0.576c-1.152 1.536-1.216 3.84-0.32 6.848 0.96 3.072 1.344 4.928 1.152 5.696s0.64 2.56 2.56 5.44l3.456 5.184c0 0 1.344 1.6 3.968 4.864 2.688 3.264 4.16 4.992 4.544 5.184 2.688 3.072 8.576 9.6 17.728 19.712s15.744 17.344 19.712 21.696c3.968 4.416 9.92 11.904 17.728 22.592 7.808 10.624 14.016 20.352 18.56 29.12 4.608 8.768 9.728 20.032 15.424 33.728s10.624 28.16 14.848 43.456c0.064-0.064-192.896 99.136-192.896 304.448z" />
<glyph unicode="&#xe66f;" d="M992.385 339.941l-5.249 16.212c-7.114 22.194-31.076 34.406-53.194 27.249l-427.051-138.423c-3.535-1.132-6.597-2.662-9.442-4.355-18.777 23.283-45.164 40.216-75.744 46.878-0.862 4.581-2.134 9.636-3.88 14.994l-152.328 469.046c-7.19 22.118-31.334 45.584-53.658 52.181l-118.87 34.902c-22.312 6.564-45.94-6.349-52.515-28.694l-4.797-16.319c-6.575-22.323 6.316-45.961 28.65-52.515l67.271-19.812c22.323-6.532 46.457-30.009 53.668-52.127l131.374-404.135c1.746-5.336 3.902-10.143 6.306-14.368-35.603-21.957-60.567-60.093-63.682-104.933-5.12-73.814 50.758-138.057 124.605-143.166 73.577-5.131 137.55 50.392 143.091 123.807 3.88 0.226 7.901 0.83 12.116 2.199l426.049 138.068c22.151 7.2 34.417 31.14 27.282 53.313zM389.142 98.6c-31.916 2.21-56.040 29.955-53.83 61.86 2.22 31.916 29.955 56.040 61.85 53.83 31.884-2.21 56.029-29.944 53.809-61.86-2.199-31.884-29.944-56.029-61.828-53.83zM466.858 338.378c7.146-22.118 31.086-34.406 53.226-27.238l344.377 111.012c22.14 7.136 34.417 31.086 27.271 53.237l-90.403 280.845c-7.157 22.172-31.076 34.363-53.216 27.131l-72.327-23.649c-22.108-7.254-34.32-31.281-27.174-53.399l9.626-29.707c7.179-22.108-5.066-46.069-27.217-53.205l-43.806-14.088c-22.14-7.114-46.134 5.195-53.291 27.303l-9.626 29.728c-7.157 22.118-31.162 34.471-53.323 27.4l-67.228-21.407c-22.183-7.049-34.482-30.946-27.346-53.097l90.457-280.867zM559.772 668.041c4.775-14.778 20.674-22.851 35.398-17.936l3.535 1.153c14.702 4.872 22.862 20.997 18.109 35.754l-7.265 22.625c-4.754 14.789-20.674 22.884-35.398 17.958l-3.525-1.175c-14.724-4.904-22.873-21.008-18.141-35.743l7.287-22.636z" />
<glyph unicode="&#xe670;" d="M947.456 338.048l-407.296 407.296c-12.416 12.416-32.832 12.416-45.248 0l-407.296-407.296c-12.416-12.416-12.416-32.832 0-45.248l90.496-90.496c12.416-12.416 32.832-12.416 45.248 0l294.144 294.144 294.144-294.144c12.416-12.416 32.832-12.416 45.248 0l90.496 90.496c12.48 12.48 12.48 32.832 0.064 45.248z" />
<glyph unicode="&#xe671;" d="M947.456 590.848l-90.496 90.496c-12.416 12.416-32.832 12.416-45.248 0l-294.208-294.144-294.144 294.144c-12.416 12.416-32.832 12.416-45.248 0l-90.496-90.496c-12.416-12.416-12.416-32.832 0-45.248l407.296-407.296c12.416-12.416 32.832-12.416 45.248 0l407.296 407.296c12.416 12.48 12.416 32.832 0 45.248z" />
<glyph unicode="&#xe672;" d="M402.048 12.544l407.296 407.296c12.416 12.416 12.416 32.832 0 45.248l-407.296 407.296c-12.416 12.416-32.832 12.416-45.248 0l-90.496-90.496c-12.416-12.416-12.416-32.832 0-45.248l294.144-294.144-294.144-294.144c-12.416-12.416-12.416-32.832 0-45.248l90.496-90.496c12.48-12.48 32.832-12.48 45.248-0.064z" />
<glyph unicode="&#xe673;" d="M448.064 95.36c0-26.496-9.408-49.088-28.16-67.904-18.752-18.752-41.408-28.096-67.84-28.096-26.496 0-49.088 9.408-67.904 28.096-18.752 18.752-28.096 41.344-28.096 67.904 0 26.496 9.408 49.088 28.096 67.84 18.752 18.752 41.408 28.16 67.904 28.16s49.152-9.408 67.84-28.16 28.16-41.344 28.16-67.84zM1024.064 95.36c0-26.496-9.344-49.088-28.096-67.84s-41.344-28.16-67.904-28.16c-26.496 0-49.088 9.408-67.84 28.16s-28.16 41.344-28.16 67.84c0 26.496 9.408 49.088 28.16 67.904s41.344 28.096 67.84 28.096c26.496 0 49.088-9.344 67.904-28.096s28.096-41.408 28.096-67.904zM269.056 227.904l-115.904 594.304h-116.608c-9.92 0-18.496 3.648-25.728 10.88-7.168 7.232-10.816 15.808-10.816 25.664s3.648 18.496 10.88 25.728 15.808 10.88 25.728 10.88h146.24c6.080 0 11.52-1.216 16.256-3.712s8.576-5.44 11.456-8.896c2.88-3.392 5.376-8.064 7.424-14.016s3.52-10.944 4.288-15.168c0.768-4.16 1.856-9.792 3.136-16.832 1.344-7.040 2.176-11.904 2.56-14.528h759.424c9.92 0 18.496-3.648 25.728-10.88s10.88-15.808 10.88-25.728h0.064v-301.696c0-9.152-3.072-17.216-9.152-24.256s-13.888-11.136-23.424-12.288l-677.568-64.192 27.52-127.616h627.648c9.92 0 18.496-3.648 25.728-10.88s10.88-11.328 10.88-21.248c0-9.92-3.648-14.016-10.88-21.248s-15.808-10.88-25.728-10.88h-659.008c-9.92 0-20.864 7.68-28.096 14.912-7.232 7.296-12.928 21.696-12.928 21.696z" />
<glyph unicode="&#xe674;" d="M654.848 12.544l90.496 90.496c12.416 12.416 12.416 32.832 0 45.248l-294.144 294.208 294.144 294.144c12.416 12.416 12.416 32.832 0 45.248l-90.496 90.496c-12.416 12.416-32.832 12.416-45.248 0l-407.296-407.296c-12.416-12.416-12.416-32.832 0-45.248l407.296-407.296c12.48-12.416 32.832-12.416 45.248 0z" />
<glyph unicode="&#xe675;" d="M3237.14 491.612h-939.735c-19.231 0-34.806-15.596-34.806-34.826v-611.348c0-19.231 15.575-34.816 34.806-34.816h939.735c19.231 0 34.836 15.585 34.836 34.816v611.348c0 19.231-15.606 34.826-34.836 34.826zM3213.926-131.348h-893.327v564.92h893.327v-564.92zM2931.476-402.196h-301.804l58.040 212.818h185.713zM2590.239-402.196h378.511v-11.080h-378.511v11.080zM375.398 657.613l-118.19 95.508c0 0-27.31 84.101 59.095 59.095 0 0 52.275-18.196 84.101 25.006 0 0 36.352 131.871 143.237 36.372 0 0 34.12-110.817 84.152-90.634 0 0 52.275 95.171 125.030 42.885 0 0 47.759-61.368-100.035-168.243h-277.391zM817.674 337.039c0 0-13.691 80.804-179.589 215.992h-270.551c0 0-170.557-159.13-197.796-245.545 0 0-31.857-193.249 211.415-247.828 0 0 163.697-38.636 313.754 27.31-0.010 0 197.827 45.486 122.767 250.071zM518.851 199.752v-44.462h-26.972v42.772c-24.812 0.44-50.074 8.151-65.055 18.842l10.281 28.662c14.971-9.841 37.222-18.401 61.164-18.401 30.403 0 50.944 17.592 50.944 41.964 0 23.511-16.681 38.103-48.353 50.893-43.663 17.101-70.636 37.253-70.636 74.496 0 35.512 25.262 62.474 64.205 68.895v42.793h26.972v-41.523c25.252-0.85 42.772-7.69 55.613-14.971l-10.68-28.242c-9.001 5.151-26.522 14.981-53.955 14.981-32.911 0-45.322-19.702-45.322-37.253 0-21.811 15.811-32.922 53.053-48.763 44.063-18.012 66.345-39.813 66.345-77.875 0-34.263-23.542-65.905-67.604-72.806zM339.364 632.351h342.026v-52.951h-342.026v52.951z" />
<glyph unicode="&#xe676;" d="M684.096 191.616h-108.8v511.296h108.8c5.248 0 9.728 2.24 13.504 6.848s5.696 10.048 5.696 16.384c0 6.784-1.792 12.288-5.44 16.704l-172.8 209.152c-3.584 4.416-8.192 6.592-13.76 6.592s-10.176-2.176-13.824-6.592l-172.8-209.152c-3.584-4.352-5.376-9.856-5.376-16.64 0-6.336 1.856-11.776 5.696-16.384s8.32-6.848 13.504-6.848h108.8v-511.296h-108.8c-5.248 0-9.728-2.24-13.504-6.912s-5.696-10.048-5.696-16.384c0-6.784 1.792-12.288 5.44-16.704l172.8-209.152c3.584-4.352 8.128-6.528 13.76-6.528 5.568 0 10.176 2.176 13.76 6.528l172.8 209.152c3.584 4.352 5.44 9.92 5.44 16.704 0 6.336-1.856 11.776-5.696 16.384s-8.32 6.848-13.504 6.848z" />
<glyph unicode="&#xe677;" d="M1017.472 461.12l-209.152 172.8c-4.352 3.584-9.92 5.44-16.704 5.44-6.336 0-11.776-1.856-16.384-5.696s-6.848-8.32-6.848-13.504v-108.8h-511.296v108.8c0 5.248-2.24 9.728-6.912 13.504-4.608 3.776-10.048 5.696-16.32 5.696-6.784 0-12.288-1.792-16.704-5.44l-209.152-172.8c-4.416-3.584-6.592-8.192-6.592-13.76s2.176-10.176 6.528-13.76l209.152-172.8c4.352-3.584 9.92-5.44 16.704-5.44 6.336 0 11.776 1.856 16.384 5.696s6.912 8.32 6.912 13.504v108.8h511.296v-108.8c0-5.248 2.24-9.728 6.848-13.504s10.048-5.696 16.384-5.696c6.784 0 12.288 1.792 16.704 5.44l209.152 172.8c4.352 3.584 6.528 8.192 6.528 13.76s-2.176 10.176-6.528 13.76z" />
<glyph unicode="&#xe678;" d="M818.381 854.641h-72.653v44.892c0 24.781-20.111 44.923-44.902 44.923-24.781 0-44.913-20.142-44.913-44.923v-44.892h-89.805v44.892c0 24.781-20.132 44.923-44.923 44.923s-44.902-20.142-44.902-44.923v-44.892h-89.815v44.892c0 24.781-20.091 44.923-44.872 44.923-24.822 0-44.902-20.142-44.902-44.923v-44.892h-72.643c-59.085 0-106.998-47.923-106.998-107.049v-684.042c0-59.116 47.913-106.988 106.998-106.988h594.33c59.044 0 106.926 47.872 106.926 106.988v684.042c0 59.126-47.882 107.049-106.926 107.049zM835.553 81.254c0-19.272-15.626-34.888-34.867-34.888h-558.899c-19.241 0-34.898 15.616-34.898 34.888v648.673c0 19.2 15.657 34.888 34.898 34.888h54.917v-44.913c0-24.791 20.081-44.872 44.902-44.872 24.781 0 44.872 20.081 44.872 44.872v44.913h89.815v-44.913c0-24.791 20.101-44.872 44.902-44.872 24.791 0 44.923 20.081 44.923 44.872v44.913h89.805v-44.913c0-24.791 20.132-44.872 44.913-44.872 24.791 0 44.902 20.081 44.902 44.872v44.913h54.948c19.241 0 34.867-15.688 34.867-34.888v-648.673zM296.714 585.206h449.024v-89.815h-449.024v89.815zM296.714 405.586h449.024v-89.815h-449.024v89.815zM296.714 225.956h449.024v-89.795h-449.024v89.795z" />
<glyph unicode="&#xe679;" d="M832.512 895.872h-640c-70.4 0-128-57.6-128-128v-640c0-70.4 57.6-128 128-128h640c70.4 0 128 57.6 128 128v640c0 70.4-57.6 128-128 128zM792.768 579.2c0.448-4.16 0.704-10.304 0.704-18.56 0-38.528-5.632-77.184-16.832-115.84-11.264-38.656-28.416-75.84-51.584-111.36s-50.752-66.944-82.816-94.208c-32.064-27.264-70.592-49.024-115.52-65.28s-92.992-24.448-144.384-24.448c-79.744 0-153.536 21.568-221.376 64.64 11.008-1.408 22.464-2.048 34.368-2.048 66.432 0 126.272 20.608 179.392 61.888-31.168 0.448-59.008 10.048-83.52 28.864s-41.6 42.624-51.2 71.488c11.904-1.856 20.864-2.752 26.816-2.752 10.112 0 21.76 1.856 35.072 5.504-33.472 6.4-61.632 23.040-84.544 49.856-22.912 26.752-34.368 57.344-34.368 91.712v1.344c24.32-11.456 47.232-17.408 68.8-17.856-41.728 27.968-62.592 68.032-62.592 120.32 0 25.664 6.656 49.92 19.904 72.832 36.288-44.416 80.256-80 132.032-106.56 51.776-26.624 107.2-41.536 166.336-44.736-2.304 8.704-3.392 19.712-3.392 33.024 0 39.872 14.080 73.856 42.304 102.080 28.16 28.16 62.208 42.304 102.080 42.304 42.176 0 77.248-15.104 105.216-45.376 31.616 5.952 62.336 17.664 92.16 35.072-11.456-35.264-32.768-62.080-63.936-80.448 29.76 4.096 57.408 11.904 83.008 23.296 0 0 0.064 0.064 0.128 0.128l0.064-0.064c-0.064 0-0.128-0.064-0.128-0.064-19.392-29.248-43.392-54.208-72.192-74.752z" />
<glyph unicode="&#xe67a;" d="M832.512 895.872h-640c-70.4 0-128-57.6-128-128v-640c0-70.4 57.6-128 128-128h640c70.4 0 128 57.6 128 128v640c0 70.4-57.6 128-128 128zM806.080 383.808h-105.792v-320h-158.464v320h-92.544v132.48h92.544v79.232c0 56.832 13.312 99.776 39.872 128.768 26.624 29.056 70.528 43.52 131.84 43.52h119.744v-132.416h-80.448c-22.592 0-36.992-3.968-43.2-11.776-6.272-7.872-9.344-21.632-9.344-41.408v-65.92h133.056l-27.264-132.48z" />
<glyph unicode="&#xe67b;" d="M83.968 125.44v322.56h155.648v322.56h538.624v-322.56h155.648v-322.56h-849.92zM730.112 722.432h-443.392v-274.432h443.392v274.432zM885.76 241.152h-67.584v-67.584h67.584v67.584zM670.72 611.84h-324.608v48.128h323.584v-48.128zM670.72 504.32h-324.608v48.128h323.584v-48.128z" />
<glyph unicode="&#xe67c;" d="M921.6 702.74l-0.297 0.236c-2.949 29.225-27.802 52.224-57.764 52.224h-703.089c-29.962 0-54.804-22.999-57.754-52.214l-0.297-0.246 0.276-0.215c-0.164-1.772-0.276-3.564-0.276-5.376v-498.299c0-31.928 26.122-58.051 58.051-58.051h703.089c31.939 0 58.061 26.122 58.061 58.051v498.299c0 1.812-0.113 3.604-0.276 5.376l0.276 0.215zM753.633 673.28l-241.633-193.3-241.633 193.3h483.267zM839.68 222.72h-655.36v414.495l302.090-241.674c7.475-5.99 16.538-8.98 25.59-8.98 9.062 0 18.115 2.99 25.59 8.98l302.090 241.674v-414.495z" />
<glyph unicode="&#xe67d;" d="M896 192c0-53.019-42.981-96-96-96s-96 42.981-96 96c0 53.019 42.981 96 96 96s96-42.981 96-96zM736 608v128c0 35.348-28.662 64-64 64h-608c-35.338 0-64-28.652-64-64v-352c0-35.338 28.662-64 64-64h64v-0.809c26.808 20.306 59.843 32.809 96 32.809 88.218 0 160-71.782 160-160h256c0 65.444 39.588 121.692 96 146.442v269.558zM988.621 550.748c-15.811 31.621-57.283 57.252-92.621 57.252h-128v-259.246c10.342 2.13 21.064 3.246 32 3.246 88.218 0 160-71.782 160-160 35.338 0 64 28.662 64 64v224l-35.379 70.748zM978.504 448h-146.504v128h64c17.695 0 38.41-12.81 46.305-28.621l36.188-72.376v-27.003zM320 192c0-53.019-42.981-96-96-96s-96 42.981-96 96c0 53.019 42.981 96 96 96s96-42.981 96-96z" />
<glyph unicode="&#xe67e;" d="M512 0c51.2 0 89.6 41.6 89.6 89.6v38.4h-179.2v-38.4c0-48 38.4-89.6 89.6-89.6zM800 320v195.2c0 137.6-96 252.8-224 281.6v32c0 38.4-25.6 67.2-64 67.2s-64-28.8-64-67.2v-32c-128-32-224-144-224-281.6v-195.2l-96-96v-32h768v32l-96 96z" />
<glyph unicode="&#xe67f;" d="M288 224h-224v448h896v-448h-256l32-64h256c19.2 0 32 16 32 32v512c0 16-12.8 32-32 32h-960c-16 0-32-16-32-32v-512c0-16 16-32 32-32h256v64zM384 576l288-256-108.8-38.4 73.6-182.4-73.6-35.2-70.4 182.4-108.8-54.4v384z" />
<glyph unicode="&#xe680;" d="M256 185.6h-128v512h768v-512h-64l64-128h64c38.4 0 64 32 64 64v640c0 32-25.6 64-64 64h-896c-32 0-64-32-64-64v-640c0-32 32-64 64-64h192v128zM384 640l384-320-147.2-76.8 83.2-243.2-89.6-6.4-102.4 204.8-128-76.8v512z" />
<glyph unicode="&#xe681;" d="M384 288c0 19.2 12.8 32 32 32h384c19.2 0 32-12.8 32-32v-64c0-19.2-12.8-32-32-32h-384c-19.2 0-32 12.8-32 32v64zM384 544c0 19.2 12.8 32 32 32h192c19.2 0 32-12.8 32-32v-64c0-19.2-12.8-32-32-32h-192c-19.2 0-32 12.8-32 32v64zM384 32c0 19.2 12.8 32 32 32h576c19.2 0 32-12.8 32-32v-64c0-19.2-12.8-32-32-32h-576c-19.2 0-32 12.8-32 32v64zM179.2 953.6l-172.8-211.2c-6.4-6.4-6.4-12.8-6.4-19.2s0-12.8 6.4-19.2c6.4-6.4 6.4-6.4 12.8-6.4h102.4v-736c0-19.2 12.8-32 32-32h64c19.2 0 32 12.8 32 32v742.4h115.2c6.4 0 12.8 0 12.8 6.4s6.4 12.8 6.4 19.2c0 6.4 0 12.8-6.4 19.2l-172.8 211.2c-6.4 6.4-6.4 6.4-12.8 6.4-6.4-6.4-12.8-6.4-12.8-12.8z" />
<glyph unicode="&#xe682;" d="M384 672c0 19.2 12.8 32 32 32h384c19.2 0 32-12.8 32-32v-64c0-19.2-12.8-32-32-32h-384c-19.2 0-32 12.8-32 32v64zM384 416c0 19.2 12.8 32 32 32h192c19.2 0 32-12.8 32-32v-64c0-19.2-12.8-32-32-32h-192c-19.2 0-32 12.8-32 32v64zM384 928c0 19.2 12.8 32 32 32h576c19.2 0 32-12.8 32-32v-64c0-19.2-12.8-32-32-32h-576c-19.2 0-32 12.8-32 32v64zM204.8-57.6l172.8 211.2c6.4 6.4 6.4 12.8 6.4 19.2s0 12.8-6.4 19.2c-6.4 6.4-6.4 6.4-12.8 6.4h-102.4v736c0 19.2-12.8 32-32 32h-64c-19.2 0-32-12.8-32-32v-736h-115.2c-6.4 0-12.8 0-12.8-6.4-6.4-6.4-6.4-12.8-6.4-19.2s0-12.8 6.4-19.2l172.8-211.2c6.4-6.4 6.4-6.4 12.8-6.4s12.8 0 12.8 6.4z" />
<glyph unicode="&#xe683;" d="M96 384c-19.2 0-32-12.8-32-32v-320c0-19.2 12.8-32 32-32h192c19.2 0 32 12.8 32 32v320c0 19.2-12.8 32-32 32h-192zM96 896c-19.2 0-32-12.8-32-32v-320c0-19.2 12.8-32 32-32h448c19.2 0 32 12.8 32 32v320c0 19.2-12.8 32-32 32h-448zM480 384c-19.2 0-32-12.8-32-32v-320c0-19.2 12.8-32 32-32h448c19.2 0 32 12.8 32 32v320c0 19.2-12.8 32-32 32h-448zM736 896c-19.2 0-32-12.8-32-32v-320c0-19.2 12.8-32 32-32h192c19.2 0 32 12.8 32 32v320c0 19.2-12.8 32-32 32h-192z" />
<glyph unicode="&#xe684;" d="M576 864c0 19.2 12.8 32 32 32h320c19.2 0 32-12.8 32-32v-192c0-19.2-12.8-32-32-32h-320c-19.2 0-32 12.8-32 32v192zM64 864c0 19.2 12.8 32 32 32h320c19.2 0 32-12.8 32-32v-448c0-19.2-12.8-32-32-32h-320c-19.2 0-32 12.8-32 32v448zM576 480c0 19.2 12.8 32 32 32h320c19.2 0 32-12.8 32-32v-448c0-19.2-12.8-32-32-32h-320c-19.2 0-32 12.8-32 32v448zM64 224c0 19.2 12.8 32 32 32h320c19.2 0 32-12.8 32-32v-192c0-19.2-12.8-32-32-32h-320c-19.2 0-32 12.8-32 32v192z" />
<glyph unicode="&#xe685;" d="M64 96c0 19.2 12.8 32 32 32h832c19.2 0 32-12.8 32-32v-64c0-19.2-12.8-32-32-32h-832c-19.2 0-32 12.8-32 32 0 0 0 64 0 64zM448 864v-352h-108.8c-6.4 0-12.8 0-12.8-6.4-6.4-6.4-6.4-12.8-6.4-19.2s0-12.8 6.4-19.2l172.8-211.2c6.4-6.4 6.4-6.4 12.8-6.4s12.8 0 12.8 6.4l172.8 211.2c6.4 6.4 6.4 12.8 6.4 19.2s0 12.8-6.4 19.2c-6.4 6.4-6.4 6.4-12.8 6.4h-108.8v352c0 19.2-12.8 32-32 32h-64c-19.2 0-32-12.8-32-32z" />
<glyph unicode="&#xe686;" d="M64 480c0 19.2 12.8 32 32 32h832c19.2 0 32-12.8 32-32v-64c0-19.2-12.8-32-32-32h-832c-19.2 0-32 12.8-32 32v64zM684.8 0h-345.6c-6.4 0-12.8 0-12.8 6.4-6.4 6.4-6.4 12.8-6.4 19.2s0 12.8 6.4 19.2l172.8 211.2c0 0 6.4 0 12.8 0s12.8 0 12.8-6.4l172.8-211.2c6.4 0 6.4-6.4 6.4-12.8s0-12.8-6.4-19.2c0-6.4-6.4-6.4-12.8-6.4zM339.2 896h345.6c6.4 0 12.8 0 12.8-6.4 6.4-6.4 6.4-12.8 6.4-19.2s0-12.8-6.4-19.2l-172.8-211.2c0 0-6.4 0-12.8 0s-12.8 0-12.8 6.4l-172.8 211.2c-6.4 0-6.4 6.4-6.4 12.8s0 12.8 6.4 19.2c0 6.4 6.4 6.4 12.8 6.4z" />
<glyph unicode="&#xe687;" d="M960 800c0-19.2-12.8-32-32-32h-832c-19.2 0-32 12.8-32 32v64c0 19.2 12.8 32 32 32h832c19.2 0 32-12.8 32-32 0 0 0-64 0-64zM576 32v352h108.8c6.4 0 12.8 0 12.8 6.4 6.4 6.4 6.4 12.8 6.4 19.2s0 12.8-6.4 19.2l-172.8 211.2c-6.4 6.4-6.4 6.4-12.8 6.4s-12.8 0-12.8-6.4l-172.8-211.2c-6.4-6.4-6.4-12.8-6.4-19.2s0-12.8 6.4-19.2c6.4-6.4 6.4-6.4 12.8-6.4h108.8v-352c0-19.2 12.8-32 32-32h64c19.2 0 32 12.8 32 32z" />
<glyph unicode="&#xe688;" d="M931.2 611.2v-576h-832v576h832zM963.2 675.2h-896c-16 0-32-12.8-32-32v-640c0-16 16-32 32-32h896c19.2 0 32 12.8 32 32v640c0 19.2-12.8 32-32 32v0zM355.2 451.2c0-25.6-9.6-48-28.8-67.2-16-19.2-38.4-28.8-67.2-28.8s-48 9.6-67.2 28.8c-19.2 19.2-28.8 41.6-28.8 67.2s9.6 48 28.8 67.2c19.2 19.2 41.6 28.8 67.2 28.8s48-9.6 67.2-28.8c19.2-19.2 28.8-41.6 28.8-67.2zM419.2 355.2l64-64 192 192 192-192v-192h-704zM1187.2 227.2h32c19.2 0 32 12.8 32 32v640c0 19.2-12.8 32-32 32v0h-896c-16 0-32-12.8-32-32v-32h896v-640zM1059.2 99.2h32c19.2 0 32 12.8 32 32v640c0 19.2-12.8 32-32 32v0h-896c-16 0-32-12.8-32-32v-32h896v-640z" horiz-adv-x="1280" />
<glyph unicode="&#xe68a;" d="M762.048 689.408l-230.4 262.4c-4.8 5.44-10.944 8.192-18.368 8.192s-13.568-2.752-18.368-8.192l-230.4-262.4c-4.8-5.44-7.232-12.416-7.232-20.992-0.064-7.872 2.496-14.72 7.552-20.48s11.072-8.64 18.048-8.64h99.776v-223.232c0-17.6 14.4-32.064 32-32.064h192c17.6 0 32 14.464 32 32.064v223.232h105.024c6.976-0.064 12.992 2.816 18.048 8.64s7.552 12.608 7.552 20.544c0 8.448-2.432 15.424-7.232 20.928zM929.28 319.808h-193.472c-29.12-40.064-75.968-66.368-129.152-66.368h-192c-53.184 0-100.032 26.368-129.152 66.368h-188.224c-17.6 0-32-14.4-32-32v-256c0-17.6 14.4-32 32-32h832c17.6 0 32 14.4 32 32v256c0 17.6-14.4 32-32 32zM640.512 63.808c-35.328 0-64 28.672-64 64s28.672 64 64 64c35.328 0 64-28.672 64-64 0-35.392-28.608-64-64-64zM832.512 63.808c-35.328 0-64 28.672-64 64s28.672 64 64 64c35.328 0 64-28.672 64-64 0-35.392-28.608-64-64-64z" />
<glyph unicode="&#xe695;" d="M321.472 126.144c0-35.584-12.416-65.792-37.312-90.688s-55.104-37.312-90.688-37.312-65.792 12.416-90.688 37.312-37.312 55.104-37.312 90.688c0 35.584 12.416 65.792 37.312 90.688s55.104 37.312 90.688 37.312 65.792-12.416 90.688-37.312c24.896-24.96 37.312-55.168 37.312-90.688zM129.472 702.144c352.896 0 640-287.104 640-640h128c0 424.128-343.872 768-768 768v0-128zM609.472 62.144c0 265.088-214.912 480-480 480v0-128c194.112 0 352-157.888 352-352h128z" />
<glyph unicode="&#xe697;" d="M161.152 384.512h-69.696c-25.152 0-46.656 8.96-64.576 26.816-17.92 17.92-26.88 39.424-26.816 64.64v125.12c0 25.152 8.96 46.656 26.816 64.576 17.92 17.92 39.424 31.040 64.576 31.040h322.24c165.696 0 306.112 45.952 481.728 192.192 19.84 0 26.56-3.52 41.024-18.048 14.464-14.464 14.4-37.248 14.4-57.088v-219.456l-0.064-0.128c20.16 0 37.44-7.168 51.712-21.44 14.336-14.144 21.504-31.424 21.504-51.584s-7.168-37.44-21.44-51.712c-14.272-14.272-31.488-21.44-51.712-21.44v-219.456c0-19.84 0.192-28.288-14.272-42.752s-29.12-13.696-41.152-1.664c-158.848 132.224-356.8 196.736-481.728 188.48s-86.912-148.992-30.848-188.48c56.064-39.488 87.168-100.16 58.048-184.064h-226.24l-53.504 384.448zM895.424 248.192v576.64c-124.16-131.136-306.048-176.64-448.512-192.192v-192.192c143.616-16 324.352-58.112 448.512-192.256z" />
</font>
</defs>
</svg>
